<svg id="Layer_1" data-name="Layer 1" xmlns="http://www.w3.org/2000/svg" viewBox="0 0 398.83 290.41"><defs><style>.cls-1{fill:#fefeff;}.cls-2{fill:#fff;}.cls-3{font-size:77.09px;font-family:Alegreya Sans;}.cls-4{letter-spacing:-1.13px;}</style></defs><title>ppp_logo</title><path class="cls-1" d="M356.57,211.81c-0.23-.66-0.48-1.31-0.72-2l-0.15-.13-98.5-58.86s-20.06-13.69-29.65-19.33c0,0-.74-0.41-1.66-4s1.35-5.12-2.55-8.91-7.92-7-7.92-7-2.09-3.19-8.27,7.85a71.79,71.79,0,0,0,6.11,6.44c2.8,2.47,2.51,3.83,1,8.36s1.26,5.86,5,7.66c0,0,7.51,1,8.28,7.95s-2,6.7,11.63,13.05,32,15.81,48.77,26.94,33.53,24.53,56.55,24.08c0,0,7.59,0,12.09-1.76A1.41,1.41,0,0,0,356.57,211.81Z" transform="translate(2.13 -8.6)"/><path d="M343.33,216.77c-20.74,0-36.34-10.61-51.44-20.87-1.83-1.24-3.65-2.48-5.47-3.69-17.18-11.44-35.81-20.85-48.4-26.73-11.43-5.34-12.89-6.75-13.07-12.57,0-.76,0-1.65-0.17-2.73-0.52-4.66-5.81-5.45-5.86-5.46l-0.43-.06-0.39-.19c-3.71-1.76-8.79-4.18-6.49-11.1,1.33-4,1.33-4-.2-5.35a73.84,73.84,0,0,1-6.41-6.75l-1.25-1.49,1-1.7c3.7-6.62,6.68-9.61,9.64-9.72a4,4,0,0,1,3.07,1.21c0.87,0.71,4.41,3.65,7.91,7,3.23,3.14,3.37,5.47,3.21,8a6.7,6.7,0,0,0,.11,2.25,13.76,13.76,0,0,0,.84,2.52c9.79,5.82,28.52,18.6,29.32,19.15l98.76,59.06,0.75,0.64,0.41,1.23c0.17,0.47.35,0.95,0.52,1.43v0a4.21,4.21,0,0,1,.21,1.09l0.14,2.06-1.91.76c-5,2-12.83,2-13.15,2h-1.19ZM220.16,139.19c3.46,0.65,9.47,3.49,10.23,10.36,0.14,1.28.17,2.33,0.2,3.18,0.09,2.85.1,3.08,9.82,7.63,12.77,6,31.67,15.52,49.14,27.15,1.84,1.22,3.67,2.47,5.52,3.73,14.65,10,29.77,20.23,49.41,19.89a50.89,50.89,0,0,0,7.11-.56l-95.84-57.27c-0.34-.23-20.23-13.8-29.63-19.32-0.78-.43-1.88-1.5-3-5.69a11.93,11.93,0,0,1-.28-4c0.09-1.45.12-2-1.51-3.58-2.88-2.79-5.85-5.32-7.11-6.36a19.65,19.65,0,0,0-3.65,4.81,57.84,57.84,0,0,0,4.52,4.64c4.13,3.64,3.43,6.55,1.83,11.37C216.35,137,216.24,137.3,220.16,139.19Zm9.44-9.58h0Zm-0.67-.55,0.12,0.07Z" transform="translate(2.13 -8.6)"/><path class="cls-2" d="M374.68,164.81c-2-4.31-10.29-9.32-10.29-9.32-19.68-12.57-42.12-10-63.17-9.33a417.53,417.53,0,0,1-58.11-2.77c-15.51-1.76-13-.49-17.76,5s-11.85,2.42-11.85,2.42c-4.32-.46-7.49-0.78-8.86,3.89s-1.92,6-5.79,6.61a80,80,0,0,0-9.08,2.27c-1.14,12.71,2.55,11.09,2.55,11.09s5.39-.65,11-1.83,4.58-3.72,7.46-6.27,3.76-2.51,3.76-2.51c11.63,0.25,37.06-.85,37.06-0.85l123,1.83Z" transform="translate(2.13 -8.6)"/><path d="M191.94,176.63a3.21,3.21,0,0,1-1.89-.62c-2.11-1.52-2.8-5.52-2.16-12.6l0.11-1.25,1.2-.38a80.66,80.66,0,0,1,9.34-2.34c2.72-.44,3-0.74,4.29-5.28,1.81-6.2,6.62-5.69,10.87-5.23l0.55,0.14c0.23,0.1,5.93,2.44,9.67-1.91,0.76-.88,1.32-1.65,1.81-2.31,3.16-4.31,4.47-4.83,17.59-3.34,14.41,1.64,36.14,3.45,57.83,2.76,2.29-.07,4.6-0.17,6.92-0.26,19.32-.8,39.29-1.62,57.32,9.89,0.86,0.52,8.82,5.42,11,10.12l0.31,0.67-0.76,2.15-1.37.09-123-1.83c-0.14,0-25.13,1.08-36.81.85a12.81,12.81,0,0,0-2.74,2,8.14,8.14,0,0,0-1.64,2.13c-1,1.7-2.19,3.63-6.67,4.57-5.13,1.08-10,1.71-11,1.83A3,3,0,0,1,191.94,176.63ZM191.55,165c-0.38,5.5.32,7.29,0.61,7.78,0.6-.08,5.63-0.72,10.78-1.8,2.88-.6,3.38-1.44,4.22-2.83a11.81,11.81,0,0,1,2.37-3c3.46-3.06,4.7-3,5.1-3,11.38,0.24,36.64-.83,36.9-0.85l119.62,1.78a42.69,42.69,0,0,0-7.74-6c-17.07-10.9-36.44-10.1-55.17-9.33-2.33.1-4.66,0.19-7,.27-21.93.69-43.84-1.13-58.38-2.78-11.81-1.34-12.07-1-14.13,1.82-0.53.73-1.15,1.57-2,2.54-4.32,5-10.71,4.23-13.75,3-4.39-.46-5.71-0.41-6.58,2.57-1.4,4.79-2.3,7.13-7.3,7.95A70.58,70.58,0,0,0,191.55,165Zm23,0.93h0Z" transform="translate(2.13 -8.6)"/><path d="M243.86,159.1c-1.52,0-4.09-1.4-5-2.06a2.7,2.7,0,0,1-1.35-1.8,33.28,33.28,0,0,1,.52-5.1l0.06-.36,0.26-.27c0.29-.3,2.91-3,5.35-3h0.19l0.18,0.06c1.78,0.57,4.87,1.74,5.47,3.24s-0.07,4.63-.29,5.57l-0.09.39-0.31.25c-1,.83-3.43,2.78-4.58,3A1.84,1.84,0,0,1,243.86,159.1Zm-4-4.29a10.24,10.24,0,0,0,4,1.93h0a21.66,21.66,0,0,0,3.2-2.28,10.93,10.93,0,0,0,.31-3.77,12.17,12.17,0,0,0-3.8-1.82,7.66,7.66,0,0,0-3.26,2A39.45,39.45,0,0,0,239.84,154.82Zm-0.08-.09" transform="translate(2.13 -8.6)"/><path d="M243.45,157.26a4.33,4.33,0,0,1-1.57-.29,4.22,4.22,0,0,1-2.37-2.31,4.4,4.4,0,0,1,0-3.45,4.56,4.56,0,0,1,5.8-2.52,4.23,4.23,0,0,1,2.37,2.31,4.41,4.41,0,0,1,0,3.45A4.62,4.62,0,0,1,243.45,157.26Zm0.28-7a2.72,2.72,0,0,0-2.47,1.67,2.53,2.53,0,0,0,0,2,2.35,2.35,0,0,0,1.32,1.28,2.66,2.66,0,0,0,3.37-1.5,2.53,2.53,0,0,0,0-2,2.35,2.35,0,0,0-1.32-1.29A2.47,2.47,0,0,0,243.73,150.27Z" transform="translate(2.13 -8.6)"/><path d="M374.7,164.75a10.47,10.47,0,0,0-3.28-4l-119.54-2.92-0.27,5.4,123,1.83C374.62,165,374.67,164.85,374.7,164.75Z" transform="translate(2.13 -8.6)"/><path d="M374.59,164.76a11.16,11.16,0,0,0-3.32-3.85l0.14,0.05h-15l-15,0-29.9-.31c-10-.07-19.93-0.36-29.89-0.53l-29.89-.59,1.73-1.6-0.28,5.4-1.65-1.76,30.74,0.6,15.37,0.3c5.12,0.08,10.25.26,15.37,0.4l30.74,0.9L374.59,165l-0.1.07Zm0.2,0-0.12.34,0,0.06h-0.07l-123-1.74h-0.19v-0.19l0.27-5.4v-0.18h0.18l119.54,3h0l0,0a11.34,11.34,0,0,1,3.31,4.05v0Z" transform="translate(2.13 -8.6)"/><path class="cls-2" d="M175.93,164.31l9.75-1.71s6.87-1.3,6.76,5.39,0.67,9.13-4.43,10.51a63.15,63.15,0,0,1-10.37,1.77S178.88,171.58,175.93,164.31Z" transform="translate(2.13 -8.6)"/><path d="M175.43,182.32l0.33-2.32c0-.08,1.14-8.29-1.58-15l-0.88-2.16,12-2.11c0.38-.07,4.07-0.69,6.68,1.5a7,7,0,0,1,2.29,5.77c0,0.87,0,1.66,0,2.4,0,4.84,0,8.33-5.81,9.91a64.47,64.47,0,0,1-10.73,1.83Zm3-16.54a37.19,37.19,0,0,1,1.27,12.38,58.6,58.6,0,0,0,7.8-1.47c2.95-.8,3-1.28,3-6.26,0-.75,0-1.57,0-2.46a3.46,3.46,0,0,0-.95-2.83c-1.26-1.06-3.55-.68-3.57-0.68Z" transform="translate(2.13 -8.6)"/><path d="M177.26,164.17L36.91,188.08s-13.55,1.45-13.62,13,17.32,6.75,17.32,6.75L179,180.13S180.36,173.54,177.26,164.17Z" transform="translate(2.13 -8.6)"/><path d="M33.14,210.79c-2.94,0-6.12-.53-8.46-2.31a8.7,8.7,0,0,1-3.29-7.36c0.06-10.51,10-14.35,15.3-14.91L178.54,162l0.51,1.54c3.23,9.75,1.82,16.66,1.76,17l-0.26,1.21L41,209.73A31.59,31.59,0,0,1,33.14,210.79Zm142.8-44.49L37.22,189.93c-0.6.07-12,1.45-12.05,11.2a5,5,0,0,0,1.8,4.34c3.32,2.54,10.6,1.28,13.12.59l137.17-27.52A33.65,33.65,0,0,0,175.94,166.3Z" transform="translate(2.13 -8.6)"/><path class="cls-2" d="M196.3,114.06l7.11,5.78s5,4.15,8.21-1.53,5.1-7.4,1.62-10.83a55.15,55.15,0,0,0-7.6-6.11S202.34,109.24,196.3,114.06Z" transform="translate(2.13 -8.6)"/><path d="M207.25,123.18a8.55,8.55,0,0,1-5-1.9L193.29,114l1.83-1.46c5.6-4.46,8.75-11.88,8.78-12l0.87-2.08,1.89,1.23a56.47,56.47,0,0,1,7.89,6.35c4.07,4,2.31,7-.12,11.08-0.36.62-.76,1.29-1.19,2a7.12,7.12,0,0,1-4.9,3.85A6.18,6.18,0,0,1,207.25,123.18Zm-8-9.18,5.38,4.37a4.45,4.45,0,0,0,3.1,1,3.61,3.61,0,0,0,2.28-2c0.43-.76.84-1.45,1.22-2.08,2.5-4.21,2.64-4.58.72-6.48a50.6,50.6,0,0,0-5.53-4.63A38.61,38.61,0,0,1,199.22,114Z" transform="translate(2.13 -8.6)"/><path d="M205.64,101.36l-99.23-85s-11.79-11.82-17.51-2,4.63,17.06,4.63,17.06L196.3,114.06A27.53,27.53,0,0,0,205.64,101.36Z" transform="translate(2.13 -8.6)"/><path d="M196.19,116.39L92.34,32.9c-4-2.78-10.29-10.54-5.07-19.48a8.86,8.86,0,0,1,6.62-4.75c6.54-.85,13.56,6.09,13.85,6.39l100.13,85.72L207.41,102a29.3,29.3,0,0,1-10.07,13.61ZM95,12.37a5.3,5.3,0,0,0-.68,0,5.23,5.23,0,0,0-3.84,2.91c-4.77,8.17,3.72,14.31,4.08,14.57l101.71,81.76a26.88,26.88,0,0,0,7.07-9.74L105.18,17.82C103.52,16.17,98.85,12.37,95,12.37Z" transform="translate(2.13 -8.6)"/><text class="cls-3" transform="translate(0 270.29) scale(0.89 1)">P<tspan class="cls-4" x="41.17" y="0">h</tspan><tspan x="80.17" y="0">yl</tspan><tspan class="cls-4" x="133.29" y="0">o</tspan><tspan x="169.67" y="0">P</tspan><tspan class="cls-4" x="211.3" y="0">y</tspan><tspan class="cls-4" x="242.91" y="0">P</tspan><tspan x="282.92" y="0">r</tspan><tspan x="308.74" y="0">uner</tspan></text></svg>