<?xml version="1.0" encoding="utf-8" standalone="no"?>
<!DOCTYPE svg PUBLIC "-//W3C//DTD SVG 1.1//EN"
  "http://www.w3.org/Graphics/SVG/1.1/DTD/svg11.dtd">
<!-- Created with matplotlib (https://matplotlib.org/) -->
<svg height="799.2pt" version="1.1" viewBox="0 0 1440 799.2" width="1440pt" xmlns="http://www.w3.org/2000/svg" xmlns:xlink="http://www.w3.org/1999/xlink">
 <metadata>
  <rdf:RDF xmlns:cc="http://creativecommons.org/ns#" xmlns:dc="http://purl.org/dc/elements/1.1/" xmlns:rdf="http://www.w3.org/1999/02/22-rdf-syntax-ns#">
   <cc:Work>
    <dc:type rdf:resource="http://purl.org/dc/dcmitype/StillImage"/>
    <dc:date>2021-07-08T21:22:06.187194</dc:date>
    <dc:format>image/svg+xml</dc:format>
    <dc:creator>
     <cc:Agent>
      <dc:title>Matplotlib v3.3.4, https://matplotlib.org/</dc:title>
     </cc:Agent>
    </dc:creator>
   </cc:Work>
  </rdf:RDF>
 </metadata>
 <defs>
  <style type="text/css">*{stroke-linecap:butt;stroke-linejoin:round;}</style>
 </defs>
 <g id="figure_1">
  <g id="patch_1">
   <path d="M 0 799.2 
L 1440 799.2 
L 1440 0 
L 0 0 
z
" style="fill:#ffffff;"/>
  </g>
  <g id="axes_1">
   <g id="patch_2">
    <path d="M 180 711.288 
L 1296 711.288 
L 1296 95.904 
L 180 95.904 
z
" style="fill:#ffffff;"/>
   </g>
   <g id="patch_3">
    <path clip-path="url(#pb021dab346)" d="M 180 683.316 
L 386.614961 683.316 
L 386.614961 677.25161 
L 180 677.25161 
z
" style="opacity:0.5;"/>
   </g>
   <g id="patch_4">
    <path clip-path="url(#pb021dab346)" d="M 180 675.735512 
L 446.179635 675.735512 
L 446.179635 669.671122 
L 180 669.671122 
z
" style="opacity:0.5;"/>
   </g>
   <g id="patch_5">
    <path clip-path="url(#pb021dab346)" d="M 180 668.155024 
L 799.844884 668.155024 
L 799.844884 662.090634 
L 180 662.090634 
z
" style="opacity:0.5;"/>
   </g>
   <g id="patch_6">
    <path clip-path="url(#pb021dab346)" d="M 180 660.574537 
L 978.538904 660.574537 
L 978.538904 654.510146 
L 180 654.510146 
z
" style="opacity:0.5;"/>
   </g>
   <g id="patch_7">
    <path clip-path="url(#pb021dab346)" d="M 180 652.994049 
L 924.558419 652.994049 
L 924.558419 646.929659 
L 180 646.929659 
z
" style="opacity:0.5;"/>
   </g>
   <g id="patch_8">
    <path clip-path="url(#pb021dab346)" d="M 180 645.413561 
L 1242.857143 645.413561 
L 1242.857143 639.349171 
L 180 639.349171 
z
" style="opacity:0.5;"/>
   </g>
   <g id="patch_9">
    <path clip-path="url(#pb021dab346)" d="M 180 637.833073 
L 1110.698024 637.833073 
L 1110.698024 631.768683 
L 180 631.768683 
z
" style="opacity:0.5;"/>
   </g>
   <g id="patch_10">
    <path clip-path="url(#pb021dab346)" d="M 180 630.252585 
L 412.674506 630.252585 
L 412.674506 624.188195 
L 180 624.188195 
z
" style="opacity:0.5;"/>
   </g>
   <g id="patch_11">
    <path clip-path="url(#pb021dab346)" d="M 180 622.672098 
L 924.558419 622.672098 
L 924.558419 616.607707 
L 180 616.607707 
z
" style="opacity:0.5;"/>
   </g>
   <g id="patch_12">
    <path clip-path="url(#pb021dab346)" d="M 180 615.09161 
L 412.674506 615.09161 
L 412.674506 609.02722 
L 180 609.02722 
z
" style="opacity:0.5;"/>
   </g>
   <g id="patch_13">
    <path clip-path="url(#pb021dab346)" d="M 180 607.511122 
L 366.139605 607.511122 
L 366.139605 601.446732 
L 180 601.446732 
z
" style="opacity:0.5;"/>
   </g>
   <g id="patch_14">
    <path clip-path="url(#pb021dab346)" d="M 180 599.930634 
L 490.85314 599.930634 
L 490.85314 593.866244 
L 180 593.866244 
z
" style="opacity:0.5;"/>
   </g>
   <g id="patch_15">
    <path clip-path="url(#pb021dab346)" d="M 180 592.350146 
L 799.844884 592.350146 
L 799.844884 586.285756 
L 180 586.285756 
z
" style="opacity:0.5;"/>
   </g>
   <g id="patch_16">
    <path clip-path="url(#pb021dab346)" d="M 180 584.769659 
L 366.139605 584.769659 
L 366.139605 578.705268 
L 180 578.705268 
z
" style="opacity:0.5;"/>
   </g>
   <g id="patch_17">
    <path clip-path="url(#pb021dab346)" d="M 180 577.189171 
L 446.179635 577.189171 
L 446.179635 571.12478 
L 180 571.12478 
z
" style="opacity:0.5;"/>
   </g>
   <g id="patch_18">
    <path clip-path="url(#pb021dab346)" d="M 180 569.608683 
L 386.614961 569.608683 
L 386.614961 563.544293 
L 180 563.544293 
z
" style="opacity:0.5;"/>
   </g>
   <g id="patch_19">
    <path clip-path="url(#pb021dab346)" d="M 180 562.028195 
L 180 562.028195 
L 180 555.963805 
L 180 555.963805 
z
" style="opacity:0.5;"/>
   </g>
   <g id="patch_20">
    <path clip-path="url(#pb021dab346)" d="M 180 554.447707 
L 180 554.447707 
L 180 548.383317 
L 180 548.383317 
z
" style="opacity:0.5;"/>
   </g>
   <g id="patch_21">
    <path clip-path="url(#pb021dab346)" d="M 180 546.86722 
L 180 546.86722 
L 180 540.802829 
L 180 540.802829 
z
" style="opacity:0.5;"/>
   </g>
   <g id="patch_22">
    <path clip-path="url(#pb021dab346)" d="M 180 539.286732 
L 180 539.286732 
L 180 533.222341 
L 180 533.222341 
z
" style="opacity:0.5;"/>
   </g>
   <g id="patch_23">
    <path clip-path="url(#pb021dab346)" d="M 180 531.706244 
L 180 531.706244 
L 180 525.641854 
L 180 525.641854 
z
" style="opacity:0.5;"/>
   </g>
   <g id="patch_24">
    <path clip-path="url(#pb021dab346)" d="M 180 524.125756 
L 180 524.125756 
L 180 518.061366 
L 180 518.061366 
z
" style="opacity:0.5;"/>
   </g>
   <g id="patch_25">
    <path clip-path="url(#pb021dab346)" d="M 180 516.545268 
L 180 516.545268 
L 180 510.480878 
L 180 510.480878 
z
" style="opacity:0.5;"/>
   </g>
   <g id="patch_26">
    <path clip-path="url(#pb021dab346)" d="M 180 508.96478 
L 180 508.96478 
L 180 502.90039 
L 180 502.90039 
z
" style="opacity:0.5;"/>
   </g>
   <g id="patch_27">
    <path clip-path="url(#pb021dab346)" d="M 180 501.384293 
L 180 501.384293 
L 180 495.319902 
L 180 495.319902 
z
" style="opacity:0.5;"/>
   </g>
   <g id="patch_28">
    <path clip-path="url(#pb021dab346)" d="M 180 493.803805 
L 180 493.803805 
L 180 487.739415 
L 180 487.739415 
z
" style="opacity:0.5;"/>
   </g>
   <g id="patch_29">
    <path clip-path="url(#pb021dab346)" d="M 180 486.223317 
L 180 486.223317 
L 180 480.158927 
L 180 480.158927 
z
" style="opacity:0.5;"/>
   </g>
   <g id="patch_30">
    <path clip-path="url(#pb021dab346)" d="M 180 478.642829 
L 180 478.642829 
L 180 472.578439 
L 180 472.578439 
z
" style="opacity:0.5;"/>
   </g>
   <g id="patch_31">
    <path clip-path="url(#pb021dab346)" d="M 180 471.062341 
L 180 471.062341 
L 180 464.997951 
L 180 464.997951 
z
" style="opacity:0.5;"/>
   </g>
   <g id="patch_32">
    <path clip-path="url(#pb021dab346)" d="M 180 463.481854 
L 180 463.481854 
L 180 457.417463 
L 180 457.417463 
z
" style="opacity:0.5;"/>
   </g>
   <g id="patch_33">
    <path clip-path="url(#pb021dab346)" d="M 180 455.901366 
L 180 455.901366 
L 180 449.836976 
L 180 449.836976 
z
" style="opacity:0.5;"/>
   </g>
   <g id="patch_34">
    <path clip-path="url(#pb021dab346)" d="M 180 448.320878 
L 180 448.320878 
L 180 442.256488 
L 180 442.256488 
z
" style="opacity:0.5;"/>
   </g>
   <g id="patch_35">
    <path clip-path="url(#pb021dab346)" d="M 180 440.74039 
L 180 440.74039 
L 180 434.676 
L 180 434.676 
z
" style="opacity:0.5;"/>
   </g>
   <g id="patch_36">
    <path clip-path="url(#pb021dab346)" d="M 180 433.159902 
L 180 433.159902 
L 180 427.095512 
L 180 427.095512 
z
" style="opacity:0.5;"/>
   </g>
   <g id="patch_37">
    <path clip-path="url(#pb021dab346)" d="M 180 425.579415 
L 180 425.579415 
L 180 419.515024 
L 180 419.515024 
z
" style="opacity:0.5;"/>
   </g>
   <g id="patch_38">
    <path clip-path="url(#pb021dab346)" d="M 180 417.998927 
L 180 417.998927 
L 180 411.934537 
L 180 411.934537 
z
" style="opacity:0.5;"/>
   </g>
   <g id="patch_39">
    <path clip-path="url(#pb021dab346)" d="M 180 410.418439 
L 180 410.418439 
L 180 404.354049 
L 180 404.354049 
z
" style="opacity:0.5;"/>
   </g>
   <g id="patch_40">
    <path clip-path="url(#pb021dab346)" d="M 180 402.837951 
L 180 402.837951 
L 180 396.773561 
L 180 396.773561 
z
" style="opacity:0.5;"/>
   </g>
   <g id="patch_41">
    <path clip-path="url(#pb021dab346)" d="M 180 395.257463 
L 180 395.257463 
L 180 389.193073 
L 180 389.193073 
z
" style="opacity:0.5;"/>
   </g>
   <g id="patch_42">
    <path clip-path="url(#pb021dab346)" d="M 180 387.676976 
L 180 387.676976 
L 180 381.612585 
L 180 381.612585 
z
" style="opacity:0.5;"/>
   </g>
   <g id="patch_43">
    <path clip-path="url(#pb021dab346)" d="M 180 380.096488 
L 180 380.096488 
L 180 374.032098 
L 180 374.032098 
z
" style="opacity:0.5;"/>
   </g>
   <g id="patch_44">
    <path clip-path="url(#pb021dab346)" d="M 180 372.516 
L 180 372.516 
L 180 366.45161 
L 180 366.45161 
z
" style="opacity:0.5;"/>
   </g>
   <g id="patch_45">
    <path clip-path="url(#pb021dab346)" d="M 180 364.935512 
L 180 364.935512 
L 180 358.871122 
L 180 358.871122 
z
" style="opacity:0.5;"/>
   </g>
   <g id="patch_46">
    <path clip-path="url(#pb021dab346)" d="M 180 357.355024 
L 180 357.355024 
L 180 351.290634 
L 180 351.290634 
z
" style="opacity:0.5;"/>
   </g>
   <g id="patch_47">
    <path clip-path="url(#pb021dab346)" d="M 180 349.774537 
L 180 349.774537 
L 180 343.710146 
L 180 343.710146 
z
" style="opacity:0.5;"/>
   </g>
   <g id="patch_48">
    <path clip-path="url(#pb021dab346)" d="M 180 342.194049 
L 180 342.194049 
L 180 336.129659 
L 180 336.129659 
z
" style="opacity:0.5;"/>
   </g>
   <g id="patch_49">
    <path clip-path="url(#pb021dab346)" d="M 180 334.613561 
L 180 334.613561 
L 180 328.549171 
L 180 328.549171 
z
" style="opacity:0.5;"/>
   </g>
   <g id="patch_50">
    <path clip-path="url(#pb021dab346)" d="M 180 327.033073 
L 180 327.033073 
L 180 320.968683 
L 180 320.968683 
z
" style="opacity:0.5;"/>
   </g>
   <g id="patch_51">
    <path clip-path="url(#pb021dab346)" d="M 180 319.452585 
L 180 319.452585 
L 180 313.388195 
L 180 313.388195 
z
" style="opacity:0.5;"/>
   </g>
   <g id="patch_52">
    <path clip-path="url(#pb021dab346)" d="M 180 311.872098 
L 180 311.872098 
L 180 305.807707 
L 180 305.807707 
z
" style="opacity:0.5;"/>
   </g>
   <g id="patch_53">
    <path clip-path="url(#pb021dab346)" d="M 180 304.29161 
L 180 304.29161 
L 180 298.22722 
L 180 298.22722 
z
" style="opacity:0.5;"/>
   </g>
   <g id="patch_54">
    <path clip-path="url(#pb021dab346)" d="M 180 296.711122 
L 180 296.711122 
L 180 290.646732 
L 180 290.646732 
z
" style="opacity:0.5;"/>
   </g>
   <g id="patch_55">
    <path clip-path="url(#pb021dab346)" d="M 180 289.130634 
L 180 289.130634 
L 180 283.066244 
L 180 283.066244 
z
" style="opacity:0.5;"/>
   </g>
   <g id="patch_56">
    <path clip-path="url(#pb021dab346)" d="M 180 281.550146 
L 180 281.550146 
L 180 275.485756 
L 180 275.485756 
z
" style="opacity:0.5;"/>
   </g>
   <g id="patch_57">
    <path clip-path="url(#pb021dab346)" d="M 180 273.969659 
L 180 273.969659 
L 180 267.905268 
L 180 267.905268 
z
" style="opacity:0.5;"/>
   </g>
   <g id="patch_58">
    <path clip-path="url(#pb021dab346)" d="M 180 266.389171 
L 180 266.389171 
L 180 260.32478 
L 180 260.32478 
z
" style="opacity:0.5;"/>
   </g>
   <g id="patch_59">
    <path clip-path="url(#pb021dab346)" d="M 180 258.808683 
L 180 258.808683 
L 180 252.744293 
L 180 252.744293 
z
" style="opacity:0.5;"/>
   </g>
   <g id="patch_60">
    <path clip-path="url(#pb021dab346)" d="M 180 251.228195 
L 180 251.228195 
L 180 245.163805 
L 180 245.163805 
z
" style="opacity:0.5;"/>
   </g>
   <g id="patch_61">
    <path clip-path="url(#pb021dab346)" d="M 180 243.647707 
L 180 243.647707 
L 180 237.583317 
L 180 237.583317 
z
" style="opacity:0.5;"/>
   </g>
   <g id="patch_62">
    <path clip-path="url(#pb021dab346)" d="M 180 236.06722 
L 180 236.06722 
L 180 230.002829 
L 180 230.002829 
z
" style="opacity:0.5;"/>
   </g>
   <g id="patch_63">
    <path clip-path="url(#pb021dab346)" d="M 180 228.486732 
L 180 228.486732 
L 180 222.422341 
L 180 222.422341 
z
" style="opacity:0.5;"/>
   </g>
   <g id="patch_64">
    <path clip-path="url(#pb021dab346)" d="M 180 220.906244 
L 180 220.906244 
L 180 214.841854 
L 180 214.841854 
z
" style="opacity:0.5;"/>
   </g>
   <g id="patch_65">
    <path clip-path="url(#pb021dab346)" d="M 180 213.325756 
L 180 213.325756 
L 180 207.261366 
L 180 207.261366 
z
" style="opacity:0.5;"/>
   </g>
   <g id="patch_66">
    <path clip-path="url(#pb021dab346)" d="M 180 205.745268 
L 180 205.745268 
L 180 199.680878 
L 180 199.680878 
z
" style="opacity:0.5;"/>
   </g>
   <g id="patch_67">
    <path clip-path="url(#pb021dab346)" d="M 180 198.16478 
L 180 198.16478 
L 180 192.10039 
L 180 192.10039 
z
" style="opacity:0.5;"/>
   </g>
   <g id="patch_68">
    <path clip-path="url(#pb021dab346)" d="M 180 190.584293 
L 180 190.584293 
L 180 184.519902 
L 180 184.519902 
z
" style="opacity:0.5;"/>
   </g>
   <g id="patch_69">
    <path clip-path="url(#pb021dab346)" d="M 180 183.003805 
L 180 183.003805 
L 180 176.939415 
L 180 176.939415 
z
" style="opacity:0.5;"/>
   </g>
   <g id="patch_70">
    <path clip-path="url(#pb021dab346)" d="M 180 175.423317 
L 180 175.423317 
L 180 169.358927 
L 180 169.358927 
z
" style="opacity:0.5;"/>
   </g>
   <g id="patch_71">
    <path clip-path="url(#pb021dab346)" d="M 180 167.842829 
L 180 167.842829 
L 180 161.778439 
L 180 161.778439 
z
" style="opacity:0.5;"/>
   </g>
   <g id="patch_72">
    <path clip-path="url(#pb021dab346)" d="M 180 160.262341 
L 180 160.262341 
L 180 154.197951 
L 180 154.197951 
z
" style="opacity:0.5;"/>
   </g>
   <g id="patch_73">
    <path clip-path="url(#pb021dab346)" d="M 180 152.681854 
L 180 152.681854 
L 180 146.617463 
L 180 146.617463 
z
" style="opacity:0.5;"/>
   </g>
   <g id="patch_74">
    <path clip-path="url(#pb021dab346)" d="M 180 145.101366 
L 180 145.101366 
L 180 139.036976 
L 180 139.036976 
z
" style="opacity:0.5;"/>
   </g>
   <g id="patch_75">
    <path clip-path="url(#pb021dab346)" d="M 180 137.520878 
L 180 137.520878 
L 180 131.456488 
L 180 131.456488 
z
" style="opacity:0.5;"/>
   </g>
   <g id="patch_76">
    <path clip-path="url(#pb021dab346)" d="M 180 129.94039 
L 180 129.94039 
L 180 123.876 
L 180 123.876 
z
" style="opacity:0.5;"/>
   </g>
   <g id="matplotlib.axis_1">
    <g id="xtick_1">
     <g id="line2d_1">
      <defs>
       <path d="M 0 0 
L 0 3.5 
" id="m3519f561a4" style="stroke:#000000;stroke-width:0.8;"/>
      </defs>
      <g>
       <use style="stroke:#000000;stroke-width:0.8;" x="180" xlink:href="#m3519f561a4" y="711.288"/>
      </g>
     </g>
     <g id="text_1">
      <!-- 0 -->
      <g transform="translate(176.81875 725.886437)scale(0.1 -0.1)">
       <defs>
        <path d="M 31.78125 66.40625 
Q 24.171875 66.40625 20.328125 58.90625 
Q 16.5 51.421875 16.5 36.375 
Q 16.5 21.390625 20.328125 13.890625 
Q 24.171875 6.390625 31.78125 6.390625 
Q 39.453125 6.390625 43.28125 13.890625 
Q 47.125 21.390625 47.125 36.375 
Q 47.125 51.421875 43.28125 58.90625 
Q 39.453125 66.40625 31.78125 66.40625 
z
M 31.78125 74.21875 
Q 44.046875 74.21875 50.515625 64.515625 
Q 56.984375 54.828125 56.984375 36.375 
Q 56.984375 17.96875 50.515625 8.265625 
Q 44.046875 -1.421875 31.78125 -1.421875 
Q 19.53125 -1.421875 13.0625 8.265625 
Q 6.59375 17.96875 6.59375 36.375 
Q 6.59375 54.828125 13.0625 64.515625 
Q 19.53125 74.21875 31.78125 74.21875 
z
" id="DejaVuSans-48"/>
       </defs>
       <use xlink:href="#DejaVuSans-48"/>
      </g>
     </g>
    </g>
    <g id="xtick_2">
     <g id="line2d_2">
      <g>
       <use style="stroke:#000000;stroke-width:0.8;" x="366.139605" xlink:href="#m3519f561a4" y="711.288"/>
      </g>
     </g>
     <g id="text_2">
      <!-- 10 -->
      <g transform="translate(359.777105 725.886437)scale(0.1 -0.1)">
       <defs>
        <path d="M 12.40625 8.296875 
L 28.515625 8.296875 
L 28.515625 63.921875 
L 10.984375 60.40625 
L 10.984375 69.390625 
L 28.421875 72.90625 
L 38.28125 72.90625 
L 38.28125 8.296875 
L 54.390625 8.296875 
L 54.390625 0 
L 12.40625 0 
z
" id="DejaVuSans-49"/>
       </defs>
       <use xlink:href="#DejaVuSans-49"/>
       <use x="63.623047" xlink:href="#DejaVuSans-48"/>
      </g>
     </g>
    </g>
    <g id="xtick_3">
     <g id="line2d_3">
      <g>
       <use style="stroke:#000000;stroke-width:0.8;" x="552.279209" xlink:href="#m3519f561a4" y="711.288"/>
      </g>
     </g>
     <g id="text_3">
      <!-- 20 -->
      <g transform="translate(545.916709 725.886437)scale(0.1 -0.1)">
       <defs>
        <path d="M 19.1875 8.296875 
L 53.609375 8.296875 
L 53.609375 0 
L 7.328125 0 
L 7.328125 8.296875 
Q 12.9375 14.109375 22.625 23.890625 
Q 32.328125 33.6875 34.8125 36.53125 
Q 39.546875 41.84375 41.421875 45.53125 
Q 43.3125 49.21875 43.3125 52.78125 
Q 43.3125 58.59375 39.234375 62.25 
Q 35.15625 65.921875 28.609375 65.921875 
Q 23.96875 65.921875 18.8125 64.3125 
Q 13.671875 62.703125 7.8125 59.421875 
L 7.8125 69.390625 
Q 13.765625 71.78125 18.9375 73 
Q 24.125 74.21875 28.421875 74.21875 
Q 39.75 74.21875 46.484375 68.546875 
Q 53.21875 62.890625 53.21875 53.421875 
Q 53.21875 48.921875 51.53125 44.890625 
Q 49.859375 40.875 45.40625 35.40625 
Q 44.1875 33.984375 37.640625 27.21875 
Q 31.109375 20.453125 19.1875 8.296875 
z
" id="DejaVuSans-50"/>
       </defs>
       <use xlink:href="#DejaVuSans-50"/>
       <use x="63.623047" xlink:href="#DejaVuSans-48"/>
      </g>
     </g>
    </g>
    <g id="xtick_4">
     <g id="line2d_4">
      <g>
       <use style="stroke:#000000;stroke-width:0.8;" x="738.418814" xlink:href="#m3519f561a4" y="711.288"/>
      </g>
     </g>
     <g id="text_4">
      <!-- 30 -->
      <g transform="translate(732.056314 725.886437)scale(0.1 -0.1)">
       <defs>
        <path d="M 40.578125 39.3125 
Q 47.65625 37.796875 51.625 33 
Q 55.609375 28.21875 55.609375 21.1875 
Q 55.609375 10.40625 48.1875 4.484375 
Q 40.765625 -1.421875 27.09375 -1.421875 
Q 22.515625 -1.421875 17.65625 -0.515625 
Q 12.796875 0.390625 7.625 2.203125 
L 7.625 11.71875 
Q 11.71875 9.328125 16.59375 8.109375 
Q 21.484375 6.890625 26.8125 6.890625 
Q 36.078125 6.890625 40.9375 10.546875 
Q 45.796875 14.203125 45.796875 21.1875 
Q 45.796875 27.640625 41.28125 31.265625 
Q 36.765625 34.90625 28.71875 34.90625 
L 20.21875 34.90625 
L 20.21875 43.015625 
L 29.109375 43.015625 
Q 36.375 43.015625 40.234375 45.921875 
Q 44.09375 48.828125 44.09375 54.296875 
Q 44.09375 59.90625 40.109375 62.90625 
Q 36.140625 65.921875 28.71875 65.921875 
Q 24.65625 65.921875 20.015625 65.03125 
Q 15.375 64.15625 9.8125 62.3125 
L 9.8125 71.09375 
Q 15.4375 72.65625 20.34375 73.4375 
Q 25.25 74.21875 29.59375 74.21875 
Q 40.828125 74.21875 47.359375 69.109375 
Q 53.90625 64.015625 53.90625 55.328125 
Q 53.90625 49.265625 50.4375 45.09375 
Q 46.96875 40.921875 40.578125 39.3125 
z
" id="DejaVuSans-51"/>
       </defs>
       <use xlink:href="#DejaVuSans-51"/>
       <use x="63.623047" xlink:href="#DejaVuSans-48"/>
      </g>
     </g>
    </g>
    <g id="xtick_5">
     <g id="line2d_5">
      <g>
       <use style="stroke:#000000;stroke-width:0.8;" x="924.558419" xlink:href="#m3519f561a4" y="711.288"/>
      </g>
     </g>
     <g id="text_5">
      <!-- 40 -->
      <g transform="translate(918.195919 725.886437)scale(0.1 -0.1)">
       <defs>
        <path d="M 37.796875 64.3125 
L 12.890625 25.390625 
L 37.796875 25.390625 
z
M 35.203125 72.90625 
L 47.609375 72.90625 
L 47.609375 25.390625 
L 58.015625 25.390625 
L 58.015625 17.1875 
L 47.609375 17.1875 
L 47.609375 0 
L 37.796875 0 
L 37.796875 17.1875 
L 4.890625 17.1875 
L 4.890625 26.703125 
z
" id="DejaVuSans-52"/>
       </defs>
       <use xlink:href="#DejaVuSans-52"/>
       <use x="63.623047" xlink:href="#DejaVuSans-48"/>
      </g>
     </g>
    </g>
    <g id="xtick_6">
     <g id="line2d_6">
      <g>
       <use style="stroke:#000000;stroke-width:0.8;" x="1110.698024" xlink:href="#m3519f561a4" y="711.288"/>
      </g>
     </g>
     <g id="text_6">
      <!-- 50 -->
      <g transform="translate(1104.335524 725.886437)scale(0.1 -0.1)">
       <defs>
        <path d="M 10.796875 72.90625 
L 49.515625 72.90625 
L 49.515625 64.59375 
L 19.828125 64.59375 
L 19.828125 46.734375 
Q 21.96875 47.46875 24.109375 47.828125 
Q 26.265625 48.1875 28.421875 48.1875 
Q 40.625 48.1875 47.75 41.5 
Q 54.890625 34.8125 54.890625 23.390625 
Q 54.890625 11.625 47.5625 5.09375 
Q 40.234375 -1.421875 26.90625 -1.421875 
Q 22.3125 -1.421875 17.546875 -0.640625 
Q 12.796875 0.140625 7.71875 1.703125 
L 7.71875 11.625 
Q 12.109375 9.234375 16.796875 8.0625 
Q 21.484375 6.890625 26.703125 6.890625 
Q 35.15625 6.890625 40.078125 11.328125 
Q 45.015625 15.765625 45.015625 23.390625 
Q 45.015625 31 40.078125 35.4375 
Q 35.15625 39.890625 26.703125 39.890625 
Q 22.75 39.890625 18.8125 39.015625 
Q 14.890625 38.140625 10.796875 36.28125 
z
" id="DejaVuSans-53"/>
       </defs>
       <use xlink:href="#DejaVuSans-53"/>
       <use x="63.623047" xlink:href="#DejaVuSans-48"/>
      </g>
     </g>
    </g>
    <g id="text_7">
     <!-- number of paralogs / number of alignments OTU is in -->
     <g transform="translate(604.695312 739.564562)scale(0.1 -0.1)">
      <defs>
       <path d="M 54.890625 33.015625 
L 54.890625 0 
L 45.90625 0 
L 45.90625 32.71875 
Q 45.90625 40.484375 42.875 44.328125 
Q 39.84375 48.1875 33.796875 48.1875 
Q 26.515625 48.1875 22.3125 43.546875 
Q 18.109375 38.921875 18.109375 30.90625 
L 18.109375 0 
L 9.078125 0 
L 9.078125 54.6875 
L 18.109375 54.6875 
L 18.109375 46.1875 
Q 21.34375 51.125 25.703125 53.5625 
Q 30.078125 56 35.796875 56 
Q 45.21875 56 50.046875 50.171875 
Q 54.890625 44.34375 54.890625 33.015625 
z
" id="DejaVuSans-110"/>
       <path d="M 8.5 21.578125 
L 8.5 54.6875 
L 17.484375 54.6875 
L 17.484375 21.921875 
Q 17.484375 14.15625 20.5 10.265625 
Q 23.53125 6.390625 29.59375 6.390625 
Q 36.859375 6.390625 41.078125 11.03125 
Q 45.3125 15.671875 45.3125 23.6875 
L 45.3125 54.6875 
L 54.296875 54.6875 
L 54.296875 0 
L 45.3125 0 
L 45.3125 8.40625 
Q 42.046875 3.421875 37.71875 1 
Q 33.40625 -1.421875 27.6875 -1.421875 
Q 18.265625 -1.421875 13.375 4.4375 
Q 8.5 10.296875 8.5 21.578125 
z
M 31.109375 56 
z
" id="DejaVuSans-117"/>
       <path d="M 52 44.1875 
Q 55.375 50.25 60.0625 53.125 
Q 64.75 56 71.09375 56 
Q 79.640625 56 84.28125 50.015625 
Q 88.921875 44.046875 88.921875 33.015625 
L 88.921875 0 
L 79.890625 0 
L 79.890625 32.71875 
Q 79.890625 40.578125 77.09375 44.375 
Q 74.3125 48.1875 68.609375 48.1875 
Q 61.625 48.1875 57.5625 43.546875 
Q 53.515625 38.921875 53.515625 30.90625 
L 53.515625 0 
L 44.484375 0 
L 44.484375 32.71875 
Q 44.484375 40.625 41.703125 44.40625 
Q 38.921875 48.1875 33.109375 48.1875 
Q 26.21875 48.1875 22.15625 43.53125 
Q 18.109375 38.875 18.109375 30.90625 
L 18.109375 0 
L 9.078125 0 
L 9.078125 54.6875 
L 18.109375 54.6875 
L 18.109375 46.1875 
Q 21.1875 51.21875 25.484375 53.609375 
Q 29.78125 56 35.6875 56 
Q 41.65625 56 45.828125 52.96875 
Q 50 49.953125 52 44.1875 
z
" id="DejaVuSans-109"/>
       <path d="M 48.6875 27.296875 
Q 48.6875 37.203125 44.609375 42.84375 
Q 40.53125 48.484375 33.40625 48.484375 
Q 26.265625 48.484375 22.1875 42.84375 
Q 18.109375 37.203125 18.109375 27.296875 
Q 18.109375 17.390625 22.1875 11.75 
Q 26.265625 6.109375 33.40625 6.109375 
Q 40.53125 6.109375 44.609375 11.75 
Q 48.6875 17.390625 48.6875 27.296875 
z
M 18.109375 46.390625 
Q 20.953125 51.265625 25.265625 53.625 
Q 29.59375 56 35.59375 56 
Q 45.5625 56 51.78125 48.09375 
Q 58.015625 40.1875 58.015625 27.296875 
Q 58.015625 14.40625 51.78125 6.484375 
Q 45.5625 -1.421875 35.59375 -1.421875 
Q 29.59375 -1.421875 25.265625 0.953125 
Q 20.953125 3.328125 18.109375 8.203125 
L 18.109375 0 
L 9.078125 0 
L 9.078125 75.984375 
L 18.109375 75.984375 
z
" id="DejaVuSans-98"/>
       <path d="M 56.203125 29.59375 
L 56.203125 25.203125 
L 14.890625 25.203125 
Q 15.484375 15.921875 20.484375 11.0625 
Q 25.484375 6.203125 34.421875 6.203125 
Q 39.59375 6.203125 44.453125 7.46875 
Q 49.3125 8.734375 54.109375 11.28125 
L 54.109375 2.78125 
Q 49.265625 0.734375 44.1875 -0.34375 
Q 39.109375 -1.421875 33.890625 -1.421875 
Q 20.796875 -1.421875 13.15625 6.1875 
Q 5.515625 13.8125 5.515625 26.8125 
Q 5.515625 40.234375 12.765625 48.109375 
Q 20.015625 56 32.328125 56 
Q 43.359375 56 49.78125 48.890625 
Q 56.203125 41.796875 56.203125 29.59375 
z
M 47.21875 32.234375 
Q 47.125 39.59375 43.09375 43.984375 
Q 39.0625 48.390625 32.421875 48.390625 
Q 24.90625 48.390625 20.390625 44.140625 
Q 15.875 39.890625 15.1875 32.171875 
z
" id="DejaVuSans-101"/>
       <path d="M 41.109375 46.296875 
Q 39.59375 47.171875 37.8125 47.578125 
Q 36.03125 48 33.890625 48 
Q 26.265625 48 22.1875 43.046875 
Q 18.109375 38.09375 18.109375 28.8125 
L 18.109375 0 
L 9.078125 0 
L 9.078125 54.6875 
L 18.109375 54.6875 
L 18.109375 46.1875 
Q 20.953125 51.171875 25.484375 53.578125 
Q 30.03125 56 36.53125 56 
Q 37.453125 56 38.578125 55.875 
Q 39.703125 55.765625 41.0625 55.515625 
z
" id="DejaVuSans-114"/>
       <path id="DejaVuSans-32"/>
       <path d="M 30.609375 48.390625 
Q 23.390625 48.390625 19.1875 42.75 
Q 14.984375 37.109375 14.984375 27.296875 
Q 14.984375 17.484375 19.15625 11.84375 
Q 23.34375 6.203125 30.609375 6.203125 
Q 37.796875 6.203125 41.984375 11.859375 
Q 46.1875 17.53125 46.1875 27.296875 
Q 46.1875 37.015625 41.984375 42.703125 
Q 37.796875 48.390625 30.609375 48.390625 
z
M 30.609375 56 
Q 42.328125 56 49.015625 48.375 
Q 55.71875 40.765625 55.71875 27.296875 
Q 55.71875 13.875 49.015625 6.21875 
Q 42.328125 -1.421875 30.609375 -1.421875 
Q 18.84375 -1.421875 12.171875 6.21875 
Q 5.515625 13.875 5.515625 27.296875 
Q 5.515625 40.765625 12.171875 48.375 
Q 18.84375 56 30.609375 56 
z
" id="DejaVuSans-111"/>
       <path d="M 37.109375 75.984375 
L 37.109375 68.5 
L 28.515625 68.5 
Q 23.6875 68.5 21.796875 66.546875 
Q 19.921875 64.59375 19.921875 59.515625 
L 19.921875 54.6875 
L 34.71875 54.6875 
L 34.71875 47.703125 
L 19.921875 47.703125 
L 19.921875 0 
L 10.890625 0 
L 10.890625 47.703125 
L 2.296875 47.703125 
L 2.296875 54.6875 
L 10.890625 54.6875 
L 10.890625 58.5 
Q 10.890625 67.625 15.140625 71.796875 
Q 19.390625 75.984375 28.609375 75.984375 
z
" id="DejaVuSans-102"/>
       <path d="M 18.109375 8.203125 
L 18.109375 -20.796875 
L 9.078125 -20.796875 
L 9.078125 54.6875 
L 18.109375 54.6875 
L 18.109375 46.390625 
Q 20.953125 51.265625 25.265625 53.625 
Q 29.59375 56 35.59375 56 
Q 45.5625 56 51.78125 48.09375 
Q 58.015625 40.1875 58.015625 27.296875 
Q 58.015625 14.40625 51.78125 6.484375 
Q 45.5625 -1.421875 35.59375 -1.421875 
Q 29.59375 -1.421875 25.265625 0.953125 
Q 20.953125 3.328125 18.109375 8.203125 
z
M 48.6875 27.296875 
Q 48.6875 37.203125 44.609375 42.84375 
Q 40.53125 48.484375 33.40625 48.484375 
Q 26.265625 48.484375 22.1875 42.84375 
Q 18.109375 37.203125 18.109375 27.296875 
Q 18.109375 17.390625 22.1875 11.75 
Q 26.265625 6.109375 33.40625 6.109375 
Q 40.53125 6.109375 44.609375 11.75 
Q 48.6875 17.390625 48.6875 27.296875 
z
" id="DejaVuSans-112"/>
       <path d="M 34.28125 27.484375 
Q 23.390625 27.484375 19.1875 25 
Q 14.984375 22.515625 14.984375 16.5 
Q 14.984375 11.71875 18.140625 8.90625 
Q 21.296875 6.109375 26.703125 6.109375 
Q 34.1875 6.109375 38.703125 11.40625 
Q 43.21875 16.703125 43.21875 25.484375 
L 43.21875 27.484375 
z
M 52.203125 31.203125 
L 52.203125 0 
L 43.21875 0 
L 43.21875 8.296875 
Q 40.140625 3.328125 35.546875 0.953125 
Q 30.953125 -1.421875 24.3125 -1.421875 
Q 15.921875 -1.421875 10.953125 3.296875 
Q 6 8.015625 6 15.921875 
Q 6 25.140625 12.171875 29.828125 
Q 18.359375 34.515625 30.609375 34.515625 
L 43.21875 34.515625 
L 43.21875 35.40625 
Q 43.21875 41.609375 39.140625 45 
Q 35.0625 48.390625 27.6875 48.390625 
Q 23 48.390625 18.546875 47.265625 
Q 14.109375 46.140625 10.015625 43.890625 
L 10.015625 52.203125 
Q 14.9375 54.109375 19.578125 55.046875 
Q 24.21875 56 28.609375 56 
Q 40.484375 56 46.34375 49.84375 
Q 52.203125 43.703125 52.203125 31.203125 
z
" id="DejaVuSans-97"/>
       <path d="M 9.421875 75.984375 
L 18.40625 75.984375 
L 18.40625 0 
L 9.421875 0 
z
" id="DejaVuSans-108"/>
       <path d="M 45.40625 27.984375 
Q 45.40625 37.75 41.375 43.109375 
Q 37.359375 48.484375 30.078125 48.484375 
Q 22.859375 48.484375 18.828125 43.109375 
Q 14.796875 37.75 14.796875 27.984375 
Q 14.796875 18.265625 18.828125 12.890625 
Q 22.859375 7.515625 30.078125 7.515625 
Q 37.359375 7.515625 41.375 12.890625 
Q 45.40625 18.265625 45.40625 27.984375 
z
M 54.390625 6.78125 
Q 54.390625 -7.171875 48.1875 -13.984375 
Q 42 -20.796875 29.203125 -20.796875 
Q 24.46875 -20.796875 20.265625 -20.09375 
Q 16.0625 -19.390625 12.109375 -17.921875 
L 12.109375 -9.1875 
Q 16.0625 -11.328125 19.921875 -12.34375 
Q 23.78125 -13.375 27.78125 -13.375 
Q 36.625 -13.375 41.015625 -8.765625 
Q 45.40625 -4.15625 45.40625 5.171875 
L 45.40625 9.625 
Q 42.625 4.78125 38.28125 2.390625 
Q 33.9375 0 27.875 0 
Q 17.828125 0 11.671875 7.65625 
Q 5.515625 15.328125 5.515625 27.984375 
Q 5.515625 40.671875 11.671875 48.328125 
Q 17.828125 56 27.875 56 
Q 33.9375 56 38.28125 53.609375 
Q 42.625 51.21875 45.40625 46.390625 
L 45.40625 54.6875 
L 54.390625 54.6875 
z
" id="DejaVuSans-103"/>
       <path d="M 44.28125 53.078125 
L 44.28125 44.578125 
Q 40.484375 46.53125 36.375 47.5 
Q 32.28125 48.484375 27.875 48.484375 
Q 21.1875 48.484375 17.84375 46.4375 
Q 14.5 44.390625 14.5 40.28125 
Q 14.5 37.15625 16.890625 35.375 
Q 19.28125 33.59375 26.515625 31.984375 
L 29.59375 31.296875 
Q 39.15625 29.25 43.1875 25.515625 
Q 47.21875 21.78125 47.21875 15.09375 
Q 47.21875 7.46875 41.1875 3.015625 
Q 35.15625 -1.421875 24.609375 -1.421875 
Q 20.21875 -1.421875 15.453125 -0.5625 
Q 10.6875 0.296875 5.421875 2 
L 5.421875 11.28125 
Q 10.40625 8.6875 15.234375 7.390625 
Q 20.0625 6.109375 24.8125 6.109375 
Q 31.15625 6.109375 34.5625 8.28125 
Q 37.984375 10.453125 37.984375 14.40625 
Q 37.984375 18.0625 35.515625 20.015625 
Q 33.0625 21.96875 24.703125 23.78125 
L 21.578125 24.515625 
Q 13.234375 26.265625 9.515625 29.90625 
Q 5.8125 33.546875 5.8125 39.890625 
Q 5.8125 47.609375 11.28125 51.796875 
Q 16.75 56 26.8125 56 
Q 31.78125 56 36.171875 55.265625 
Q 40.578125 54.546875 44.28125 53.078125 
z
" id="DejaVuSans-115"/>
       <path d="M 25.390625 72.90625 
L 33.6875 72.90625 
L 8.296875 -9.28125 
L 0 -9.28125 
z
" id="DejaVuSans-47"/>
       <path d="M 9.421875 54.6875 
L 18.40625 54.6875 
L 18.40625 0 
L 9.421875 0 
z
M 9.421875 75.984375 
L 18.40625 75.984375 
L 18.40625 64.59375 
L 9.421875 64.59375 
z
" id="DejaVuSans-105"/>
       <path d="M 18.3125 70.21875 
L 18.3125 54.6875 
L 36.8125 54.6875 
L 36.8125 47.703125 
L 18.3125 47.703125 
L 18.3125 18.015625 
Q 18.3125 11.328125 20.140625 9.421875 
Q 21.96875 7.515625 27.59375 7.515625 
L 36.8125 7.515625 
L 36.8125 0 
L 27.59375 0 
Q 17.1875 0 13.234375 3.875 
Q 9.28125 7.765625 9.28125 18.015625 
L 9.28125 47.703125 
L 2.6875 47.703125 
L 2.6875 54.6875 
L 9.28125 54.6875 
L 9.28125 70.21875 
z
" id="DejaVuSans-116"/>
       <path d="M 39.40625 66.21875 
Q 28.65625 66.21875 22.328125 58.203125 
Q 16.015625 50.203125 16.015625 36.375 
Q 16.015625 22.609375 22.328125 14.59375 
Q 28.65625 6.59375 39.40625 6.59375 
Q 50.140625 6.59375 56.421875 14.59375 
Q 62.703125 22.609375 62.703125 36.375 
Q 62.703125 50.203125 56.421875 58.203125 
Q 50.140625 66.21875 39.40625 66.21875 
z
M 39.40625 74.21875 
Q 54.734375 74.21875 63.90625 63.9375 
Q 73.09375 53.65625 73.09375 36.375 
Q 73.09375 19.140625 63.90625 8.859375 
Q 54.734375 -1.421875 39.40625 -1.421875 
Q 24.03125 -1.421875 14.8125 8.828125 
Q 5.609375 19.09375 5.609375 36.375 
Q 5.609375 53.65625 14.8125 63.9375 
Q 24.03125 74.21875 39.40625 74.21875 
z
" id="DejaVuSans-79"/>
       <path d="M -0.296875 72.90625 
L 61.375 72.90625 
L 61.375 64.59375 
L 35.5 64.59375 
L 35.5 0 
L 25.59375 0 
L 25.59375 64.59375 
L -0.296875 64.59375 
z
" id="DejaVuSans-84"/>
       <path d="M 8.6875 72.90625 
L 18.609375 72.90625 
L 18.609375 28.609375 
Q 18.609375 16.890625 22.84375 11.734375 
Q 27.09375 6.59375 36.625 6.59375 
Q 46.09375 6.59375 50.34375 11.734375 
Q 54.59375 16.890625 54.59375 28.609375 
L 54.59375 72.90625 
L 64.5 72.90625 
L 64.5 27.390625 
Q 64.5 13.140625 57.4375 5.859375 
Q 50.390625 -1.421875 36.625 -1.421875 
Q 22.796875 -1.421875 15.734375 5.859375 
Q 8.6875 13.140625 8.6875 27.390625 
z
" id="DejaVuSans-85"/>
      </defs>
      <use xlink:href="#DejaVuSans-110"/>
      <use x="63.378906" xlink:href="#DejaVuSans-117"/>
      <use x="126.757812" xlink:href="#DejaVuSans-109"/>
      <use x="224.169922" xlink:href="#DejaVuSans-98"/>
      <use x="287.646484" xlink:href="#DejaVuSans-101"/>
      <use x="349.169922" xlink:href="#DejaVuSans-114"/>
      <use x="390.283203" xlink:href="#DejaVuSans-32"/>
      <use x="422.070312" xlink:href="#DejaVuSans-111"/>
      <use x="483.251953" xlink:href="#DejaVuSans-102"/>
      <use x="518.457031" xlink:href="#DejaVuSans-32"/>
      <use x="550.244141" xlink:href="#DejaVuSans-112"/>
      <use x="613.720703" xlink:href="#DejaVuSans-97"/>
      <use x="675" xlink:href="#DejaVuSans-114"/>
      <use x="716.113281" xlink:href="#DejaVuSans-97"/>
      <use x="777.392578" xlink:href="#DejaVuSans-108"/>
      <use x="805.175781" xlink:href="#DejaVuSans-111"/>
      <use x="866.357422" xlink:href="#DejaVuSans-103"/>
      <use x="929.833984" xlink:href="#DejaVuSans-115"/>
      <use x="981.933594" xlink:href="#DejaVuSans-32"/>
      <use x="1013.720703" xlink:href="#DejaVuSans-47"/>
      <use x="1047.412109" xlink:href="#DejaVuSans-32"/>
      <use x="1079.199219" xlink:href="#DejaVuSans-110"/>
      <use x="1142.578125" xlink:href="#DejaVuSans-117"/>
      <use x="1205.957031" xlink:href="#DejaVuSans-109"/>
      <use x="1303.369141" xlink:href="#DejaVuSans-98"/>
      <use x="1366.845703" xlink:href="#DejaVuSans-101"/>
      <use x="1428.369141" xlink:href="#DejaVuSans-114"/>
      <use x="1469.482422" xlink:href="#DejaVuSans-32"/>
      <use x="1501.269531" xlink:href="#DejaVuSans-111"/>
      <use x="1562.451172" xlink:href="#DejaVuSans-102"/>
      <use x="1597.65625" xlink:href="#DejaVuSans-32"/>
      <use x="1629.443359" xlink:href="#DejaVuSans-97"/>
      <use x="1690.722656" xlink:href="#DejaVuSans-108"/>
      <use x="1718.505859" xlink:href="#DejaVuSans-105"/>
      <use x="1746.289062" xlink:href="#DejaVuSans-103"/>
      <use x="1809.765625" xlink:href="#DejaVuSans-110"/>
      <use x="1873.144531" xlink:href="#DejaVuSans-109"/>
      <use x="1970.556641" xlink:href="#DejaVuSans-101"/>
      <use x="2032.080078" xlink:href="#DejaVuSans-110"/>
      <use x="2095.458984" xlink:href="#DejaVuSans-116"/>
      <use x="2134.667969" xlink:href="#DejaVuSans-115"/>
      <use x="2186.767578" xlink:href="#DejaVuSans-32"/>
      <use x="2218.554688" xlink:href="#DejaVuSans-79"/>
      <use x="2297.265625" xlink:href="#DejaVuSans-84"/>
      <use x="2358.349609" xlink:href="#DejaVuSans-85"/>
      <use x="2431.542969" xlink:href="#DejaVuSans-32"/>
      <use x="2463.330078" xlink:href="#DejaVuSans-105"/>
      <use x="2491.113281" xlink:href="#DejaVuSans-115"/>
      <use x="2543.212891" xlink:href="#DejaVuSans-32"/>
      <use x="2575" xlink:href="#DejaVuSans-105"/>
      <use x="2602.783203" xlink:href="#DejaVuSans-110"/>
     </g>
    </g>
   </g>
   <g id="matplotlib.axis_2">
    <g id="ytick_1">
     <g id="line2d_7">
      <defs>
       <path d="M 0 0 
L -3.5 0 
" id="mb43e5485d3" style="stroke:#000000;stroke-width:0.8;"/>
      </defs>
      <g>
       <use style="stroke:#000000;stroke-width:0.8;" x="180" xlink:href="#mb43e5485d3" y="680.283805"/>
      </g>
     </g>
     <g id="text_8">
      <!-- MEDU -->
      <g transform="translate(143.034375 684.083024)scale(0.1 -0.1)">
       <defs>
        <path d="M 9.8125 72.90625 
L 24.515625 72.90625 
L 43.109375 23.296875 
L 61.8125 72.90625 
L 76.515625 72.90625 
L 76.515625 0 
L 66.890625 0 
L 66.890625 64.015625 
L 48.09375 14.015625 
L 38.1875 14.015625 
L 19.390625 64.015625 
L 19.390625 0 
L 9.8125 0 
z
" id="DejaVuSans-77"/>
        <path d="M 9.8125 72.90625 
L 55.90625 72.90625 
L 55.90625 64.59375 
L 19.671875 64.59375 
L 19.671875 43.015625 
L 54.390625 43.015625 
L 54.390625 34.71875 
L 19.671875 34.71875 
L 19.671875 8.296875 
L 56.78125 8.296875 
L 56.78125 0 
L 9.8125 0 
z
" id="DejaVuSans-69"/>
        <path d="M 19.671875 64.796875 
L 19.671875 8.109375 
L 31.59375 8.109375 
Q 46.6875 8.109375 53.6875 14.9375 
Q 60.6875 21.78125 60.6875 36.53125 
Q 60.6875 51.171875 53.6875 57.984375 
Q 46.6875 64.796875 31.59375 64.796875 
z
M 9.8125 72.90625 
L 30.078125 72.90625 
Q 51.265625 72.90625 61.171875 64.09375 
Q 71.09375 55.28125 71.09375 36.53125 
Q 71.09375 17.671875 61.125 8.828125 
Q 51.171875 0 30.078125 0 
L 9.8125 0 
z
" id="DejaVuSans-68"/>
       </defs>
       <use xlink:href="#DejaVuSans-77"/>
       <use x="86.279297" xlink:href="#DejaVuSans-69"/>
       <use x="149.462891" xlink:href="#DejaVuSans-68"/>
       <use x="226.464844" xlink:href="#DejaVuSans-85"/>
      </g>
     </g>
    </g>
    <g id="ytick_2">
     <g id="line2d_8">
      <g>
       <use style="stroke:#000000;stroke-width:0.8;" x="180" xlink:href="#mb43e5485d3" y="672.703317"/>
      </g>
     </g>
     <g id="text_9">
      <!-- MEGA -->
      <g transform="translate(143.464063 676.502536)scale(0.1 -0.1)">
       <defs>
        <path d="M 59.515625 10.40625 
L 59.515625 29.984375 
L 43.40625 29.984375 
L 43.40625 38.09375 
L 69.28125 38.09375 
L 69.28125 6.78125 
Q 63.578125 2.734375 56.6875 0.65625 
Q 49.8125 -1.421875 42 -1.421875 
Q 24.90625 -1.421875 15.25 8.5625 
Q 5.609375 18.5625 5.609375 36.375 
Q 5.609375 54.25 15.25 64.234375 
Q 24.90625 74.21875 42 74.21875 
Q 49.125 74.21875 55.546875 72.453125 
Q 61.96875 70.703125 67.390625 67.28125 
L 67.390625 56.78125 
Q 61.921875 61.421875 55.765625 63.765625 
Q 49.609375 66.109375 42.828125 66.109375 
Q 29.4375 66.109375 22.71875 58.640625 
Q 16.015625 51.171875 16.015625 36.375 
Q 16.015625 21.625 22.71875 14.15625 
Q 29.4375 6.6875 42.828125 6.6875 
Q 48.046875 6.6875 52.140625 7.59375 
Q 56.25 8.5 59.515625 10.40625 
z
" id="DejaVuSans-71"/>
        <path d="M 34.1875 63.1875 
L 20.796875 26.90625 
L 47.609375 26.90625 
z
M 28.609375 72.90625 
L 39.796875 72.90625 
L 67.578125 0 
L 57.328125 0 
L 50.6875 18.703125 
L 17.828125 18.703125 
L 11.1875 0 
L 0.78125 0 
z
" id="DejaVuSans-65"/>
       </defs>
       <use xlink:href="#DejaVuSans-77"/>
       <use x="86.279297" xlink:href="#DejaVuSans-69"/>
       <use x="149.462891" xlink:href="#DejaVuSans-71"/>
       <use x="226.953125" xlink:href="#DejaVuSans-65"/>
      </g>
     </g>
    </g>
    <g id="ytick_3">
     <g id="line2d_9">
      <g>
       <use style="stroke:#000000;stroke-width:0.8;" x="180" xlink:href="#mb43e5485d3" y="665.122829"/>
      </g>
     </g>
     <g id="text_10">
      <!-- GPYR -->
      <g transform="translate(146.390625 668.922048)scale(0.1 -0.1)">
       <defs>
        <path d="M 19.671875 64.796875 
L 19.671875 37.40625 
L 32.078125 37.40625 
Q 38.96875 37.40625 42.71875 40.96875 
Q 46.484375 44.53125 46.484375 51.125 
Q 46.484375 57.671875 42.71875 61.234375 
Q 38.96875 64.796875 32.078125 64.796875 
z
M 9.8125 72.90625 
L 32.078125 72.90625 
Q 44.34375 72.90625 50.609375 67.359375 
Q 56.890625 61.8125 56.890625 51.125 
Q 56.890625 40.328125 50.609375 34.8125 
Q 44.34375 29.296875 32.078125 29.296875 
L 19.671875 29.296875 
L 19.671875 0 
L 9.8125 0 
z
" id="DejaVuSans-80"/>
        <path d="M -0.203125 72.90625 
L 10.40625 72.90625 
L 30.609375 42.921875 
L 50.6875 72.90625 
L 61.28125 72.90625 
L 35.5 34.71875 
L 35.5 0 
L 25.59375 0 
L 25.59375 34.71875 
z
" id="DejaVuSans-89"/>
        <path d="M 44.390625 34.1875 
Q 47.5625 33.109375 50.5625 29.59375 
Q 53.5625 26.078125 56.59375 19.921875 
L 66.609375 0 
L 56 0 
L 46.6875 18.703125 
Q 43.0625 26.03125 39.671875 28.421875 
Q 36.28125 30.8125 30.421875 30.8125 
L 19.671875 30.8125 
L 19.671875 0 
L 9.8125 0 
L 9.8125 72.90625 
L 32.078125 72.90625 
Q 44.578125 72.90625 50.734375 67.671875 
Q 56.890625 62.453125 56.890625 51.90625 
Q 56.890625 45.015625 53.6875 40.46875 
Q 50.484375 35.9375 44.390625 34.1875 
z
M 19.671875 64.796875 
L 19.671875 38.921875 
L 32.078125 38.921875 
Q 39.203125 38.921875 42.84375 42.21875 
Q 46.484375 45.515625 46.484375 51.90625 
Q 46.484375 58.296875 42.84375 61.546875 
Q 39.203125 64.796875 32.078125 64.796875 
z
" id="DejaVuSans-82"/>
       </defs>
       <use xlink:href="#DejaVuSans-71"/>
       <use x="77.490234" xlink:href="#DejaVuSans-80"/>
       <use x="135.542969" xlink:href="#DejaVuSans-89"/>
       <use x="196.626953" xlink:href="#DejaVuSans-82"/>
      </g>
     </g>
    </g>
    <g id="ytick_4">
     <g id="line2d_10">
      <g>
       <use style="stroke:#000000;stroke-width:0.8;" x="180" xlink:href="#mb43e5485d3" y="657.542341"/>
      </g>
     </g>
     <g id="text_11">
      <!-- NANO -->
      <g transform="translate(143.325 661.34156)scale(0.1 -0.1)">
       <defs>
        <path d="M 9.8125 72.90625 
L 23.09375 72.90625 
L 55.421875 11.921875 
L 55.421875 72.90625 
L 64.984375 72.90625 
L 64.984375 0 
L 51.703125 0 
L 19.390625 60.984375 
L 19.390625 0 
L 9.8125 0 
z
" id="DejaVuSans-78"/>
       </defs>
       <use xlink:href="#DejaVuSans-78"/>
       <use x="74.804688" xlink:href="#DejaVuSans-65"/>
       <use x="143.212891" xlink:href="#DejaVuSans-78"/>
       <use x="218.017578" xlink:href="#DejaVuSans-79"/>
      </g>
     </g>
    </g>
    <g id="ytick_5">
     <g id="line2d_11">
      <g>
       <use style="stroke:#000000;stroke-width:0.8;" x="180" xlink:href="#mb43e5485d3" y="649.961854"/>
      </g>
     </g>
     <g id="text_12">
      <!-- PVAN -->
      <g transform="translate(146.445312 653.761072)scale(0.1 -0.1)">
       <defs>
        <path d="M 28.609375 0 
L 0.78125 72.90625 
L 11.078125 72.90625 
L 34.1875 11.53125 
L 57.328125 72.90625 
L 67.578125 72.90625 
L 39.796875 0 
z
" id="DejaVuSans-86"/>
       </defs>
       <use xlink:href="#DejaVuSans-80"/>
       <use x="60.302734" xlink:href="#DejaVuSans-86"/>
       <use x="122.335938" xlink:href="#DejaVuSans-65"/>
       <use x="190.744141" xlink:href="#DejaVuSans-78"/>
      </g>
     </g>
    </g>
    <g id="ytick_6">
     <g id="line2d_12">
      <g>
       <use style="stroke:#000000;stroke-width:0.8;" x="180" xlink:href="#mb43e5485d3" y="642.381366"/>
      </g>
     </g>
     <g id="text_13">
      <!-- PGOU -->
      <g transform="translate(144.03125 646.180585)scale(0.1 -0.1)">
       <use xlink:href="#DejaVuSans-80"/>
       <use x="60.302734" xlink:href="#DejaVuSans-71"/>
       <use x="137.792969" xlink:href="#DejaVuSans-79"/>
       <use x="216.503906" xlink:href="#DejaVuSans-85"/>
      </g>
     </g>
    </g>
    <g id="ytick_7">
     <g id="line2d_13">
      <g>
       <use style="stroke:#000000;stroke-width:0.8;" x="180" xlink:href="#mb43e5485d3" y="634.800878"/>
      </g>
     </g>
     <g id="text_14">
      <!-- CTOR -->
      <g transform="translate(145.089063 638.600097)scale(0.1 -0.1)">
       <defs>
        <path d="M 64.40625 67.28125 
L 64.40625 56.890625 
Q 59.421875 61.53125 53.78125 63.8125 
Q 48.140625 66.109375 41.796875 66.109375 
Q 29.296875 66.109375 22.65625 58.46875 
Q 16.015625 50.828125 16.015625 36.375 
Q 16.015625 21.96875 22.65625 14.328125 
Q 29.296875 6.6875 41.796875 6.6875 
Q 48.140625 6.6875 53.78125 8.984375 
Q 59.421875 11.28125 64.40625 15.921875 
L 64.40625 5.609375 
Q 59.234375 2.09375 53.4375 0.328125 
Q 47.65625 -1.421875 41.21875 -1.421875 
Q 24.65625 -1.421875 15.125 8.703125 
Q 5.609375 18.84375 5.609375 36.375 
Q 5.609375 53.953125 15.125 64.078125 
Q 24.65625 74.21875 41.21875 74.21875 
Q 47.75 74.21875 53.53125 72.484375 
Q 59.328125 70.75 64.40625 67.28125 
z
" id="DejaVuSans-67"/>
       </defs>
       <use xlink:href="#DejaVuSans-67"/>
       <use x="69.824219" xlink:href="#DejaVuSans-84"/>
       <use x="130.908203" xlink:href="#DejaVuSans-79"/>
       <use x="209.619141" xlink:href="#DejaVuSans-82"/>
      </g>
     </g>
    </g>
    <g id="ytick_8">
     <g id="line2d_14">
      <g>
       <use style="stroke:#000000;stroke-width:0.8;" x="180" xlink:href="#mb43e5485d3" y="627.22039"/>
      </g>
     </g>
     <g id="text_15">
      <!-- PAGA -->
      <g transform="translate(146.353125 631.019609)scale(0.1 -0.1)">
       <use xlink:href="#DejaVuSans-80"/>
       <use x="53.927734" xlink:href="#DejaVuSans-65"/>
       <use x="120.585938" xlink:href="#DejaVuSans-71"/>
       <use x="198.076172" xlink:href="#DejaVuSans-65"/>
      </g>
     </g>
    </g>
    <g id="ytick_9">
     <g id="line2d_15">
      <g>
       <use style="stroke:#000000;stroke-width:0.8;" x="180" xlink:href="#mb43e5485d3" y="619.639902"/>
      </g>
     </g>
     <g id="text_16">
      <!-- LCAL -->
      <g transform="translate(148.032813 623.439121)scale(0.1 -0.1)">
       <defs>
        <path d="M 9.8125 72.90625 
L 19.671875 72.90625 
L 19.671875 8.296875 
L 55.171875 8.296875 
L 55.171875 0 
L 9.8125 0 
z
" id="DejaVuSans-76"/>
       </defs>
       <use xlink:href="#DejaVuSans-76"/>
       <use x="55.712891" xlink:href="#DejaVuSans-67"/>
       <use x="125.537109" xlink:href="#DejaVuSans-65"/>
       <use x="193.945312" xlink:href="#DejaVuSans-76"/>
      </g>
     </g>
    </g>
    <g id="ytick_10">
     <g id="line2d_16">
      <g>
       <use style="stroke:#000000;stroke-width:0.8;" x="180" xlink:href="#mb43e5485d3" y="612.059415"/>
      </g>
     </g>
     <g id="text_17">
      <!-- ARIC -->
      <g transform="translate(149.278125 615.858633)scale(0.1 -0.1)">
       <defs>
        <path d="M 9.8125 72.90625 
L 19.671875 72.90625 
L 19.671875 0 
L 9.8125 0 
z
" id="DejaVuSans-73"/>
       </defs>
       <use xlink:href="#DejaVuSans-65"/>
       <use x="68.408203" xlink:href="#DejaVuSans-82"/>
       <use x="137.890625" xlink:href="#DejaVuSans-73"/>
       <use x="167.382812" xlink:href="#DejaVuSans-67"/>
      </g>
     </g>
    </g>
    <g id="ytick_11">
     <g id="line2d_17">
      <g>
       <use style="stroke:#000000;stroke-width:0.8;" x="180" xlink:href="#mb43e5485d3" y="604.478927"/>
      </g>
     </g>
     <g id="text_18">
      <!-- PCER -->
      <g transform="translate(146.720313 608.278146)scale(0.1 -0.1)">
       <use xlink:href="#DejaVuSans-80"/>
       <use x="60.302734" xlink:href="#DejaVuSans-67"/>
       <use x="130.126953" xlink:href="#DejaVuSans-69"/>
       <use x="193.310547" xlink:href="#DejaVuSans-82"/>
      </g>
     </g>
    </g>
    <g id="ytick_12">
     <g id="line2d_18">
      <g>
       <use style="stroke:#000000;stroke-width:0.8;" x="180" xlink:href="#mb43e5485d3" y="596.898439"/>
      </g>
     </g>
     <g id="text_19">
      <!-- BGRA -->
      <g transform="translate(145.176562 600.697658)scale(0.1 -0.1)">
       <defs>
        <path d="M 19.671875 34.8125 
L 19.671875 8.109375 
L 35.5 8.109375 
Q 43.453125 8.109375 47.28125 11.40625 
Q 51.125 14.703125 51.125 21.484375 
Q 51.125 28.328125 47.28125 31.5625 
Q 43.453125 34.8125 35.5 34.8125 
z
M 19.671875 64.796875 
L 19.671875 42.828125 
L 34.28125 42.828125 
Q 41.5 42.828125 45.03125 45.53125 
Q 48.578125 48.25 48.578125 53.8125 
Q 48.578125 59.328125 45.03125 62.0625 
Q 41.5 64.796875 34.28125 64.796875 
z
M 9.8125 72.90625 
L 35.015625 72.90625 
Q 46.296875 72.90625 52.390625 68.21875 
Q 58.5 63.53125 58.5 54.890625 
Q 58.5 48.1875 55.375 44.234375 
Q 52.25 40.28125 46.1875 39.3125 
Q 53.46875 37.75 57.5 32.78125 
Q 61.53125 27.828125 61.53125 20.40625 
Q 61.53125 10.640625 54.890625 5.3125 
Q 48.25 0 35.984375 0 
L 9.8125 0 
z
" id="DejaVuSans-66"/>
       </defs>
       <use xlink:href="#DejaVuSans-66"/>
       <use x="66.853516" xlink:href="#DejaVuSans-71"/>
       <use x="144.34375" xlink:href="#DejaVuSans-82"/>
       <use x="209.826172" xlink:href="#DejaVuSans-65"/>
      </g>
     </g>
    </g>
    <g id="ytick_13">
     <g id="line2d_19">
      <g>
       <use style="stroke:#000000;stroke-width:0.8;" x="180" xlink:href="#mb43e5485d3" y="589.317951"/>
      </g>
     </g>
     <g id="text_20">
      <!-- PCAU -->
      <g transform="translate(145.828125 593.11717)scale(0.1 -0.1)">
       <use xlink:href="#DejaVuSans-80"/>
       <use x="60.302734" xlink:href="#DejaVuSans-67"/>
       <use x="130.126953" xlink:href="#DejaVuSans-65"/>
       <use x="198.535156" xlink:href="#DejaVuSans-85"/>
      </g>
     </g>
    </g>
    <g id="ytick_14">
     <g id="line2d_20">
      <g>
       <use style="stroke:#000000;stroke-width:0.8;" x="180" xlink:href="#mb43e5485d3" y="581.737463"/>
      </g>
     </g>
     <g id="text_21">
      <!-- PPER -->
      <g transform="translate(147.673438 585.536682)scale(0.1 -0.1)">
       <use xlink:href="#DejaVuSans-80"/>
       <use x="60.302734" xlink:href="#DejaVuSans-80"/>
       <use x="120.605469" xlink:href="#DejaVuSans-69"/>
       <use x="183.789062" xlink:href="#DejaVuSans-82"/>
      </g>
     </g>
    </g>
    <g id="ytick_15">
     <g id="line2d_21">
      <g>
       <use style="stroke:#000000;stroke-width:0.8;" x="180" xlink:href="#mb43e5485d3" y="574.156976"/>
      </g>
     </g>
     <g id="text_22">
      <!-- LRUG -->
      <g transform="translate(145.4125 577.956194)scale(0.1 -0.1)">
       <use xlink:href="#DejaVuSans-76"/>
       <use x="55.712891" xlink:href="#DejaVuSans-82"/>
       <use x="125.195312" xlink:href="#DejaVuSans-85"/>
       <use x="198.388672" xlink:href="#DejaVuSans-71"/>
      </g>
     </g>
    </g>
    <g id="ytick_16">
     <g id="line2d_22">
      <g>
       <use style="stroke:#000000;stroke-width:0.8;" x="180" xlink:href="#mb43e5485d3" y="566.576488"/>
      </g>
     </g>
     <g id="text_23">
      <!-- CFOR -->
      <g transform="translate(145.445312 570.375707)scale(0.1 -0.1)">
       <defs>
        <path d="M 9.8125 72.90625 
L 51.703125 72.90625 
L 51.703125 64.59375 
L 19.671875 64.59375 
L 19.671875 43.109375 
L 48.578125 43.109375 
L 48.578125 34.8125 
L 19.671875 34.8125 
L 19.671875 0 
L 9.8125 0 
z
" id="DejaVuSans-70"/>
       </defs>
       <use xlink:href="#DejaVuSans-67"/>
       <use x="69.824219" xlink:href="#DejaVuSans-70"/>
       <use x="127.34375" xlink:href="#DejaVuSans-79"/>
       <use x="206.054688" xlink:href="#DejaVuSans-82"/>
      </g>
     </g>
    </g>
    <g id="ytick_17">
     <g id="line2d_23">
      <g>
       <use style="stroke:#000000;stroke-width:0.8;" x="180" xlink:href="#mb43e5485d3" y="558.996"/>
      </g>
     </g>
     <g id="text_24">
      <!-- CTEL -->
      <g transform="translate(148.01875 562.795219)scale(0.1 -0.1)">
       <use xlink:href="#DejaVuSans-67"/>
       <use x="69.824219" xlink:href="#DejaVuSans-84"/>
       <use x="130.908203" xlink:href="#DejaVuSans-69"/>
       <use x="194.091797" xlink:href="#DejaVuSans-76"/>
      </g>
     </g>
    </g>
    <g id="ytick_18">
     <g id="line2d_24">
      <g>
       <use style="stroke:#000000;stroke-width:0.8;" x="180" xlink:href="#mb43e5485d3" y="551.415512"/>
      </g>
     </g>
     <g id="text_25">
      <!-- PPUL -->
      <g transform="translate(148.05 555.214731)scale(0.1 -0.1)">
       <use xlink:href="#DejaVuSans-80"/>
       <use x="60.302734" xlink:href="#DejaVuSans-80"/>
       <use x="120.605469" xlink:href="#DejaVuSans-85"/>
       <use x="193.798828" xlink:href="#DejaVuSans-76"/>
      </g>
     </g>
    </g>
    <g id="ytick_19">
     <g id="line2d_25">
      <g>
       <use style="stroke:#000000;stroke-width:0.8;" x="180" xlink:href="#mb43e5485d3" y="543.835024"/>
      </g>
     </g>
     <g id="text_26">
      <!-- TPO2 -->
      <g transform="translate(146.628125 547.634243)scale(0.1 -0.1)">
       <use xlink:href="#DejaVuSans-84"/>
       <use x="61.083984" xlink:href="#DejaVuSans-80"/>
       <use x="121.386719" xlink:href="#DejaVuSans-79"/>
       <use x="200.097656" xlink:href="#DejaVuSans-50"/>
      </g>
     </g>
    </g>
    <g id="ytick_20">
     <g id="line2d_26">
      <g>
       <use style="stroke:#000000;stroke-width:0.8;" x="180" xlink:href="#mb43e5485d3" y="536.254537"/>
      </g>
     </g>
     <g id="text_27">
      <!-- PCAL -->
      <g transform="translate(147.575 540.053755)scale(0.1 -0.1)">
       <use xlink:href="#DejaVuSans-80"/>
       <use x="60.302734" xlink:href="#DejaVuSans-67"/>
       <use x="130.126953" xlink:href="#DejaVuSans-65"/>
       <use x="198.535156" xlink:href="#DejaVuSans-76"/>
      </g>
     </g>
    </g>
    <g id="ytick_21">
     <g id="line2d_27">
      <g>
       <use style="stroke:#000000;stroke-width:0.8;" x="180" xlink:href="#mb43e5485d3" y="528.674049"/>
      </g>
     </g>
     <g id="text_28">
      <!-- BPRO -->
      <g transform="translate(145.289062 532.473268)scale(0.1 -0.1)">
       <use xlink:href="#DejaVuSans-66"/>
       <use x="68.603516" xlink:href="#DejaVuSans-80"/>
       <use x="128.90625" xlink:href="#DejaVuSans-82"/>
       <use x="198.388672" xlink:href="#DejaVuSans-79"/>
      </g>
     </g>
    </g>
    <g id="ytick_22">
     <g id="line2d_28">
      <g>
       <use style="stroke:#000000;stroke-width:0.8;" x="180" xlink:href="#mb43e5485d3" y="521.093561"/>
      </g>
     </g>
     <g id="text_29">
      <!-- BPLI -->
      <g transform="translate(151.5875 524.89278)scale(0.1 -0.1)">
       <use xlink:href="#DejaVuSans-66"/>
       <use x="68.603516" xlink:href="#DejaVuSans-80"/>
       <use x="128.90625" xlink:href="#DejaVuSans-76"/>
       <use x="184.619141" xlink:href="#DejaVuSans-73"/>
      </g>
     </g>
    </g>
    <g id="ytick_23">
     <g id="line2d_29">
      <g>
       <use style="stroke:#000000;stroke-width:0.8;" x="180" xlink:href="#mb43e5485d3" y="513.513073"/>
      </g>
     </g>
     <g id="text_30">
      <!-- GEBO -->
      <g transform="translate(144.375 517.312292)scale(0.1 -0.1)">
       <use xlink:href="#DejaVuSans-71"/>
       <use x="77.490234" xlink:href="#DejaVuSans-69"/>
       <use x="140.673828" xlink:href="#DejaVuSans-66"/>
       <use x="207.527344" xlink:href="#DejaVuSans-79"/>
      </g>
     </g>
    </g>
    <g id="ytick_24">
     <g id="line2d_30">
      <g>
       <use style="stroke:#000000;stroke-width:0.8;" x="180" xlink:href="#mb43e5485d3" y="505.932585"/>
      </g>
     </g>
     <g id="text_31">
      <!-- ROLI -->
      <g transform="translate(149.657813 509.731804)scale(0.1 -0.1)">
       <use xlink:href="#DejaVuSans-82"/>
       <use x="69.482422" xlink:href="#DejaVuSans-79"/>
       <use x="148.193359" xlink:href="#DejaVuSans-76"/>
       <use x="203.90625" xlink:href="#DejaVuSans-73"/>
      </g>
     </g>
    </g>
    <g id="ytick_25">
     <g id="line2d_31">
      <g>
       <use style="stroke:#000000;stroke-width:0.8;" x="180" xlink:href="#mb43e5485d3" y="498.352098"/>
      </g>
     </g>
     <g id="text_32">
      <!-- DGIG -->
      <g transform="translate(146.853125 502.151316)scale(0.1 -0.1)">
       <use xlink:href="#DejaVuSans-68"/>
       <use x="77.001953" xlink:href="#DejaVuSans-71"/>
       <use x="154.492188" xlink:href="#DejaVuSans-73"/>
       <use x="183.984375" xlink:href="#DejaVuSans-71"/>
      </g>
     </g>
    </g>
    <g id="ytick_26">
     <g id="line2d_32">
      <g>
       <use style="stroke:#000000;stroke-width:0.8;" x="180" xlink:href="#mb43e5485d3" y="490.77161"/>
      </g>
     </g>
     <g id="text_33">
      <!-- PARC -->
      <g transform="translate(147.335938 494.570829)scale(0.1 -0.1)">
       <use xlink:href="#DejaVuSans-80"/>
       <use x="53.927734" xlink:href="#DejaVuSans-65"/>
       <use x="122.335938" xlink:href="#DejaVuSans-82"/>
       <use x="186.818359" xlink:href="#DejaVuSans-67"/>
      </g>
     </g>
    </g>
    <g id="ytick_27">
     <g id="line2d_33">
      <g>
       <use style="stroke:#000000;stroke-width:0.8;" x="180" xlink:href="#mb43e5485d3" y="483.191122"/>
      </g>
     </g>
     <g id="text_34">
      <!-- LGIG -->
      <g transform="translate(148.98125 486.990341)scale(0.1 -0.1)">
       <use xlink:href="#DejaVuSans-76"/>
       <use x="55.712891" xlink:href="#DejaVuSans-71"/>
       <use x="133.203125" xlink:href="#DejaVuSans-73"/>
       <use x="162.695312" xlink:href="#DejaVuSans-71"/>
      </g>
     </g>
    </g>
    <g id="ytick_28">
     <g id="line2d_34">
      <g>
       <use style="stroke:#000000;stroke-width:0.8;" x="180" xlink:href="#mb43e5485d3" y="475.610634"/>
      </g>
     </g>
     <g id="text_35">
      <!-- VLIE -->
      <g transform="translate(151.31875 479.409853)scale(0.1 -0.1)">
       <use xlink:href="#DejaVuSans-86"/>
       <use x="68.408203" xlink:href="#DejaVuSans-76"/>
       <use x="124.121094" xlink:href="#DejaVuSans-73"/>
       <use x="153.613281" xlink:href="#DejaVuSans-69"/>
      </g>
     </g>
    </g>
    <g id="ytick_29">
     <g id="line2d_35">
      <g>
       <use style="stroke:#000000;stroke-width:0.8;" x="180" xlink:href="#mb43e5485d3" y="468.030146"/>
      </g>
     </g>
     <g id="text_36">
      <!-- HRUF -->
      <g transform="translate(145.460938 471.829365)scale(0.1 -0.1)">
       <defs>
        <path d="M 9.8125 72.90625 
L 19.671875 72.90625 
L 19.671875 43.015625 
L 55.515625 43.015625 
L 55.515625 72.90625 
L 65.375 72.90625 
L 65.375 0 
L 55.515625 0 
L 55.515625 34.71875 
L 19.671875 34.71875 
L 19.671875 0 
L 9.8125 0 
z
" id="DejaVuSans-72"/>
       </defs>
       <use xlink:href="#DejaVuSans-72"/>
       <use x="75.195312" xlink:href="#DejaVuSans-82"/>
       <use x="144.677734" xlink:href="#DejaVuSans-85"/>
       <use x="217.871094" xlink:href="#DejaVuSans-70"/>
      </g>
     </g>
    </g>
    <g id="ytick_30">
     <g id="line2d_36">
      <g>
       <use style="stroke:#000000;stroke-width:0.8;" x="180" xlink:href="#mb43e5485d3" y="460.449659"/>
      </g>
     </g>
     <g id="text_37">
      <!-- GTOL -->
      <g transform="translate(146.0625 464.248877)scale(0.1 -0.1)">
       <use xlink:href="#DejaVuSans-71"/>
       <use x="73.865234" xlink:href="#DejaVuSans-84"/>
       <use x="134.949219" xlink:href="#DejaVuSans-79"/>
       <use x="213.660156" xlink:href="#DejaVuSans-76"/>
      </g>
     </g>
    </g>
    <g id="ytick_31">
     <g id="line2d_37">
      <g>
       <use style="stroke:#000000;stroke-width:0.8;" x="180" xlink:href="#mb43e5485d3" y="452.869171"/>
      </g>
     </g>
     <g id="text_38">
      <!-- MSCH -->
      <g transform="translate(143.520312 456.668389)scale(0.1 -0.1)">
       <defs>
        <path d="M 53.515625 70.515625 
L 53.515625 60.890625 
Q 47.90625 63.578125 42.921875 64.890625 
Q 37.9375 66.21875 33.296875 66.21875 
Q 25.25 66.21875 20.875 63.09375 
Q 16.5 59.96875 16.5 54.203125 
Q 16.5 49.359375 19.40625 46.890625 
Q 22.3125 44.4375 30.421875 42.921875 
L 36.375 41.703125 
Q 47.40625 39.59375 52.65625 34.296875 
Q 57.90625 29 57.90625 20.125 
Q 57.90625 9.515625 50.796875 4.046875 
Q 43.703125 -1.421875 29.984375 -1.421875 
Q 24.8125 -1.421875 18.96875 -0.25 
Q 13.140625 0.921875 6.890625 3.21875 
L 6.890625 13.375 
Q 12.890625 10.015625 18.65625 8.296875 
Q 24.421875 6.59375 29.984375 6.59375 
Q 38.421875 6.59375 43.015625 9.90625 
Q 47.609375 13.234375 47.609375 19.390625 
Q 47.609375 24.75 44.3125 27.78125 
Q 41.015625 30.8125 33.5 32.328125 
L 27.484375 33.5 
Q 16.453125 35.6875 11.515625 40.375 
Q 6.59375 45.0625 6.59375 53.421875 
Q 6.59375 63.09375 13.40625 68.65625 
Q 20.21875 74.21875 32.171875 74.21875 
Q 37.3125 74.21875 42.625 73.28125 
Q 47.953125 72.359375 53.515625 70.515625 
z
" id="DejaVuSans-83"/>
       </defs>
       <use xlink:href="#DejaVuSans-77"/>
       <use x="86.279297" xlink:href="#DejaVuSans-83"/>
       <use x="149.755859" xlink:href="#DejaVuSans-67"/>
       <use x="219.580078" xlink:href="#DejaVuSans-72"/>
      </g>
     </g>
    </g>
    <g id="ytick_32">
     <g id="line2d_38">
      <g>
       <use style="stroke:#000000;stroke-width:0.8;" x="180" xlink:href="#mb43e5485d3" y="445.288683"/>
      </g>
     </g>
     <g id="text_39">
      <!-- ASUC -->
      <g transform="translate(145.509375 449.087902)scale(0.1 -0.1)">
       <use xlink:href="#DejaVuSans-65"/>
       <use x="68.408203" xlink:href="#DejaVuSans-83"/>
       <use x="131.884766" xlink:href="#DejaVuSans-85"/>
       <use x="205.078125" xlink:href="#DejaVuSans-67"/>
      </g>
     </g>
    </g>
    <g id="ytick_33">
     <g id="line2d_39">
      <g>
       <use style="stroke:#000000;stroke-width:0.8;" x="180" xlink:href="#mb43e5485d3" y="437.708195"/>
      </g>
     </g>
     <g id="text_40">
      <!-- MACR -->
      <g transform="translate(143.775 441.507414)scale(0.1 -0.1)">
       <use xlink:href="#DejaVuSans-77"/>
       <use x="86.279297" xlink:href="#DejaVuSans-65"/>
       <use x="152.9375" xlink:href="#DejaVuSans-67"/>
       <use x="222.761719" xlink:href="#DejaVuSans-82"/>
      </g>
     </g>
    </g>
    <g id="ytick_34">
     <g id="line2d_40">
      <g>
       <use style="stroke:#000000;stroke-width:0.8;" x="180" xlink:href="#mb43e5485d3" y="430.127707"/>
      </g>
     </g>
     <g id="text_41">
      <!-- CGIG -->
      <g transform="translate(147.570312 433.926926)scale(0.1 -0.1)">
       <use xlink:href="#DejaVuSans-67"/>
       <use x="69.824219" xlink:href="#DejaVuSans-71"/>
       <use x="147.314453" xlink:href="#DejaVuSans-73"/>
       <use x="176.806641" xlink:href="#DejaVuSans-71"/>
      </g>
     </g>
    </g>
    <g id="ytick_35">
     <g id="line2d_41">
      <g>
       <use style="stroke:#000000;stroke-width:0.8;" x="180" xlink:href="#mb43e5485d3" y="422.54722"/>
      </g>
     </g>
     <g id="text_42">
      <!-- MGRO -->
      <g transform="translate(141.803125 426.346438)scale(0.1 -0.1)">
       <use xlink:href="#DejaVuSans-77"/>
       <use x="86.279297" xlink:href="#DejaVuSans-71"/>
       <use x="163.769531" xlink:href="#DejaVuSans-82"/>
       <use x="233.251953" xlink:href="#DejaVuSans-79"/>
      </g>
     </g>
    </g>
    <g id="ytick_36">
     <g id="line2d_42">
      <g>
       <use style="stroke:#000000;stroke-width:0.8;" x="180" xlink:href="#mb43e5485d3" y="414.966732"/>
      </g>
     </g>
     <g id="text_43">
      <!-- LRUB -->
      <g transform="translate(146.3 418.76595)scale(0.1 -0.1)">
       <use xlink:href="#DejaVuSans-76"/>
       <use x="55.712891" xlink:href="#DejaVuSans-82"/>
       <use x="125.195312" xlink:href="#DejaVuSans-85"/>
       <use x="198.388672" xlink:href="#DejaVuSans-66"/>
      </g>
     </g>
    </g>
    <g id="ytick_37">
     <g id="line2d_43">
      <g>
       <use style="stroke:#000000;stroke-width:0.8;" x="180" xlink:href="#mb43e5485d3" y="407.386244"/>
      </g>
     </g>
     <g id="text_44">
      <!-- HPSI -->
      <g transform="translate(150.151563 411.185463)scale(0.1 -0.1)">
       <use xlink:href="#DejaVuSans-72"/>
       <use x="75.195312" xlink:href="#DejaVuSans-80"/>
       <use x="135.498047" xlink:href="#DejaVuSans-83"/>
       <use x="198.974609" xlink:href="#DejaVuSans-73"/>
      </g>
     </g>
    </g>
    <g id="ytick_38">
     <g id="line2d_44">
      <g>
       <use style="stroke:#000000;stroke-width:0.8;" x="180" xlink:href="#mb43e5485d3" y="399.805756"/>
      </g>
     </g>
     <g id="text_45">
      <!-- RPHI -->
      <g transform="translate(149.551562 403.604975)scale(0.1 -0.1)">
       <use xlink:href="#DejaVuSans-82"/>
       <use x="69.482422" xlink:href="#DejaVuSans-80"/>
       <use x="129.785156" xlink:href="#DejaVuSans-72"/>
       <use x="204.980469" xlink:href="#DejaVuSans-73"/>
      </g>
     </g>
    </g>
    <g id="ytick_39">
     <g id="line2d_45">
      <g>
       <use style="stroke:#000000;stroke-width:0.8;" x="180" xlink:href="#mb43e5485d3" y="392.225268"/>
      </g>
     </g>
     <g id="text_46">
      <!-- PFUC -->
      <g transform="translate(146.917188 396.024487)scale(0.1 -0.1)">
       <use xlink:href="#DejaVuSans-80"/>
       <use x="60.302734" xlink:href="#DejaVuSans-70"/>
       <use x="117.822266" xlink:href="#DejaVuSans-85"/>
       <use x="191.015625" xlink:href="#DejaVuSans-67"/>
      </g>
     </g>
    </g>
    <g id="ytick_40">
     <g id="line2d_46">
      <g>
       <use style="stroke:#000000;stroke-width:0.8;" x="180" xlink:href="#mb43e5485d3" y="384.64478"/>
      </g>
     </g>
     <g id="text_47">
      <!-- LLON -->
      <g transform="translate(146.865625 388.443999)scale(0.1 -0.1)">
       <use xlink:href="#DejaVuSans-76"/>
       <use x="55.712891" xlink:href="#DejaVuSans-76"/>
       <use x="107.800781" xlink:href="#DejaVuSans-79"/>
       <use x="186.511719" xlink:href="#DejaVuSans-78"/>
      </g>
     </g>
    </g>
    <g id="ytick_41">
     <g id="line2d_47">
      <g>
       <use style="stroke:#000000;stroke-width:0.8;" x="180" xlink:href="#mb43e5485d3" y="377.064293"/>
      </g>
     </g>
     <g id="text_48">
      <!-- ACRA -->
      <g transform="translate(145.9625 380.863511)scale(0.1 -0.1)">
       <use xlink:href="#DejaVuSans-65"/>
       <use x="66.658203" xlink:href="#DejaVuSans-67"/>
       <use x="136.482422" xlink:href="#DejaVuSans-82"/>
       <use x="201.964844" xlink:href="#DejaVuSans-65"/>
      </g>
     </g>
    </g>
    <g id="ytick_42">
     <g id="line2d_48">
      <g>
       <use style="stroke:#000000;stroke-width:0.8;" x="180" xlink:href="#mb43e5485d3" y="369.483805"/>
      </g>
     </g>
     <g id="text_49">
      <!-- LLAC -->
      <g transform="translate(147.982812 373.283024)scale(0.1 -0.1)">
       <use xlink:href="#DejaVuSans-76"/>
       <use x="55.712891" xlink:href="#DejaVuSans-76"/>
       <use x="113.675781" xlink:href="#DejaVuSans-65"/>
       <use x="180.333984" xlink:href="#DejaVuSans-67"/>
      </g>
     </g>
    </g>
    <g id="ytick_43">
     <g id="line2d_49">
      <g>
       <use style="stroke:#000000;stroke-width:0.8;" x="180" xlink:href="#mb43e5485d3" y="361.903317"/>
      </g>
     </g>
     <g id="text_50">
      <!-- SLES -->
      <g transform="translate(148.4125 365.702536)scale(0.1 -0.1)">
       <use xlink:href="#DejaVuSans-83"/>
       <use x="63.476562" xlink:href="#DejaVuSans-76"/>
       <use x="119.189453" xlink:href="#DejaVuSans-69"/>
       <use x="182.373047" xlink:href="#DejaVuSans-83"/>
      </g>
     </g>
    </g>
    <g id="ytick_44">
     <g id="line2d_50">
      <g>
       <use style="stroke:#000000;stroke-width:0.8;" x="180" xlink:href="#mb43e5485d3" y="354.322829"/>
      </g>
     </g>
     <g id="text_51">
      <!-- DMEL -->
      <g transform="translate(144.78125 358.122048)scale(0.1 -0.1)">
       <use xlink:href="#DejaVuSans-68"/>
       <use x="77.001953" xlink:href="#DejaVuSans-77"/>
       <use x="163.28125" xlink:href="#DejaVuSans-69"/>
       <use x="226.464844" xlink:href="#DejaVuSans-76"/>
      </g>
     </g>
    </g>
    <g id="ytick_45">
     <g id="line2d_51">
      <g>
       <use style="stroke:#000000;stroke-width:0.8;" x="180" xlink:href="#mb43e5485d3" y="346.742341"/>
      </g>
     </g>
     <g id="text_52">
      <!-- SAME -->
      <g transform="translate(144.676562 350.54156)scale(0.1 -0.1)">
       <use xlink:href="#DejaVuSans-83"/>
       <use x="65.351562" xlink:href="#DejaVuSans-65"/>
       <use x="133.759766" xlink:href="#DejaVuSans-77"/>
       <use x="220.039062" xlink:href="#DejaVuSans-69"/>
      </g>
     </g>
    </g>
    <g id="ytick_46">
     <g id="line2d_52">
      <g>
       <use style="stroke:#000000;stroke-width:0.8;" x="180" xlink:href="#mb43e5485d3" y="339.161854"/>
      </g>
     </g>
     <g id="text_53">
      <!-- DPUL -->
      <g transform="translate(146.379687 342.961072)scale(0.1 -0.1)">
       <use xlink:href="#DejaVuSans-68"/>
       <use x="77.001953" xlink:href="#DejaVuSans-80"/>
       <use x="137.304688" xlink:href="#DejaVuSans-85"/>
       <use x="210.498047" xlink:href="#DejaVuSans-76"/>
      </g>
     </g>
    </g>
    <g id="ytick_47">
     <g id="line2d_53">
      <g>
       <use style="stroke:#000000;stroke-width:0.8;" x="180" xlink:href="#mb43e5485d3" y="331.581366"/>
      </g>
     </g>
     <g id="text_54">
      <!-- CMAR -->
      <g transform="translate(143.6 335.380585)scale(0.1 -0.1)">
       <use xlink:href="#DejaVuSans-67"/>
       <use x="69.824219" xlink:href="#DejaVuSans-77"/>
       <use x="156.103516" xlink:href="#DejaVuSans-65"/>
       <use x="224.511719" xlink:href="#DejaVuSans-82"/>
      </g>
     </g>
    </g>
    <g id="ytick_48">
     <g id="line2d_54">
      <g>
       <use style="stroke:#000000;stroke-width:0.8;" x="180" xlink:href="#mb43e5485d3" y="324.000878"/>
      </g>
     </g>
     <g id="text_55">
      <!-- OVUL -->
      <g transform="translate(145.571875 327.800097)scale(0.1 -0.1)">
       <use xlink:href="#DejaVuSans-79"/>
       <use x="76.960938" xlink:href="#DejaVuSans-86"/>
       <use x="145.369141" xlink:href="#DejaVuSans-85"/>
       <use x="218.5625" xlink:href="#DejaVuSans-76"/>
      </g>
     </g>
    </g>
    <g id="ytick_49">
     <g id="line2d_55">
      <g>
       <use style="stroke:#000000;stroke-width:0.8;" x="180" xlink:href="#mb43e5485d3" y="316.42039"/>
      </g>
     </g>
     <g id="text_56">
      <!-- SESC -->
      <g transform="translate(147.001563 320.219609)scale(0.1 -0.1)">
       <use xlink:href="#DejaVuSans-83"/>
       <use x="63.476562" xlink:href="#DejaVuSans-69"/>
       <use x="126.660156" xlink:href="#DejaVuSans-83"/>
       <use x="190.136719" xlink:href="#DejaVuSans-67"/>
      </g>
     </g>
    </g>
    <g id="ytick_50">
     <g id="line2d_56">
      <g>
       <use style="stroke:#000000;stroke-width:0.8;" x="180" xlink:href="#mb43e5485d3" y="308.839902"/>
      </g>
     </g>
     <g id="text_57">
      <!-- TPO1 -->
      <g transform="translate(146.628125 312.639121)scale(0.1 -0.1)">
       <use xlink:href="#DejaVuSans-84"/>
       <use x="61.083984" xlink:href="#DejaVuSans-80"/>
       <use x="121.386719" xlink:href="#DejaVuSans-79"/>
       <use x="200.097656" xlink:href="#DejaVuSans-49"/>
      </g>
     </g>
    </g>
    <g id="ytick_51">
     <g id="line2d_57">
      <g>
       <use style="stroke:#000000;stroke-width:0.8;" x="180" xlink:href="#mb43e5485d3" y="301.259415"/>
      </g>
     </g>
     <g id="text_58">
      <!-- CHON -->
      <g transform="translate(143.14375 305.058633)scale(0.1 -0.1)">
       <use xlink:href="#DejaVuSans-67"/>
       <use x="69.824219" xlink:href="#DejaVuSans-72"/>
       <use x="145.019531" xlink:href="#DejaVuSans-79"/>
       <use x="223.730469" xlink:href="#DejaVuSans-78"/>
      </g>
     </g>
    </g>
    <g id="ytick_52">
     <g id="line2d_58">
      <g>
       <use style="stroke:#000000;stroke-width:0.8;" x="180" xlink:href="#mb43e5485d3" y="293.678927"/>
      </g>
     </g>
     <g id="text_59">
      <!-- LASE -->
      <g transform="translate(147.695312 297.478146)scale(0.1 -0.1)">
       <use xlink:href="#DejaVuSans-76"/>
       <use x="57.962891" xlink:href="#DejaVuSans-65"/>
       <use x="126.371094" xlink:href="#DejaVuSans-83"/>
       <use x="189.847656" xlink:href="#DejaVuSans-69"/>
      </g>
     </g>
    </g>
    <g id="ytick_53">
     <g id="line2d_59">
      <g>
       <use style="stroke:#000000;stroke-width:0.8;" x="180" xlink:href="#mb43e5485d3" y="286.098439"/>
      </g>
     </g>
     <g id="text_60">
      <!-- PLAM -->
      <g transform="translate(145.704688 289.897658)scale(0.1 -0.1)">
       <use xlink:href="#DejaVuSans-80"/>
       <use x="60.302734" xlink:href="#DejaVuSans-76"/>
       <use x="118.265625" xlink:href="#DejaVuSans-65"/>
       <use x="186.673828" xlink:href="#DejaVuSans-77"/>
      </g>
     </g>
    </g>
    <g id="ytick_54">
     <g id="line2d_60">
      <g>
       <use style="stroke:#000000;stroke-width:0.8;" x="180" xlink:href="#mb43e5485d3" y="278.517951"/>
      </g>
     </g>
     <g id="text_61">
      <!-- ETEN -->
      <g transform="translate(146.773438 282.31717)scale(0.1 -0.1)">
       <use xlink:href="#DejaVuSans-69"/>
       <use x="63.183594" xlink:href="#DejaVuSans-84"/>
       <use x="124.267578" xlink:href="#DejaVuSans-69"/>
       <use x="187.451172" xlink:href="#DejaVuSans-78"/>
      </g>
     </g>
    </g>
    <g id="ytick_55">
     <g id="line2d_61">
      <g>
       <use style="stroke:#000000;stroke-width:0.8;" x="180" xlink:href="#mb43e5485d3" y="270.937463"/>
      </g>
     </g>
     <g id="text_62">
      <!-- NCAR -->
      <g transform="translate(144.746875 274.736682)scale(0.1 -0.1)">
       <use xlink:href="#DejaVuSans-78"/>
       <use x="74.804688" xlink:href="#DejaVuSans-67"/>
       <use x="144.628906" xlink:href="#DejaVuSans-65"/>
       <use x="213.037109" xlink:href="#DejaVuSans-82"/>
      </g>
     </g>
    </g>
    <g id="ytick_56">
     <g id="line2d_62">
      <g>
       <use style="stroke:#000000;stroke-width:0.8;" x="180" xlink:href="#mb43e5485d3" y="263.356976"/>
      </g>
     </g>
     <g id="text_63">
      <!-- PVUL -->
      <g transform="translate(147.239062 267.156194)scale(0.1 -0.1)">
       <use xlink:href="#DejaVuSans-80"/>
       <use x="60.302734" xlink:href="#DejaVuSans-86"/>
       <use x="128.710938" xlink:href="#DejaVuSans-85"/>
       <use x="201.904297" xlink:href="#DejaVuSans-76"/>
      </g>
     </g>
    </g>
    <g id="ytick_57">
     <g id="line2d_63">
      <g>
       <use style="stroke:#000000;stroke-width:0.8;" x="180" xlink:href="#mb43e5485d3" y="255.776488"/>
      </g>
     </g>
     <g id="text_64">
      <!-- HROB -->
      <g transform="translate(143.798438 259.575707)scale(0.1 -0.1)">
       <use xlink:href="#DejaVuSans-72"/>
       <use x="75.195312" xlink:href="#DejaVuSans-82"/>
       <use x="144.677734" xlink:href="#DejaVuSans-79"/>
       <use x="223.388672" xlink:href="#DejaVuSans-66"/>
      </g>
     </g>
    </g>
    <g id="ytick_58">
     <g id="line2d_64">
      <g>
       <use style="stroke:#000000;stroke-width:0.8;" x="180" xlink:href="#mb43e5485d3" y="248.196"/>
      </g>
     </g>
     <g id="text_65">
      <!-- LVIV -->
      <g transform="translate(151.896875 251.995219)scale(0.1 -0.1)">
       <use xlink:href="#DejaVuSans-76"/>
       <use x="44.712891" xlink:href="#DejaVuSans-86"/>
       <use x="113.121094" xlink:href="#DejaVuSans-73"/>
       <use x="142.613281" xlink:href="#DejaVuSans-86"/>
      </g>
     </g>
    </g>
    <g id="ytick_59">
     <g id="line2d_65">
      <g>
       <use style="stroke:#000000;stroke-width:0.8;" x="180" xlink:href="#mb43e5485d3" y="240.615512"/>
      </g>
     </g>
     <g id="text_66">
      <!-- GPAR -->
      <g transform="translate(146.070312 244.414731)scale(0.1 -0.1)">
       <use xlink:href="#DejaVuSans-71"/>
       <use x="77.490234" xlink:href="#DejaVuSans-80"/>
       <use x="131.417969" xlink:href="#DejaVuSans-65"/>
       <use x="199.826172" xlink:href="#DejaVuSans-82"/>
      </g>
     </g>
    </g>
    <g id="ytick_60">
     <g id="line2d_66">
      <g>
       <use style="stroke:#000000;stroke-width:0.8;" x="180" xlink:href="#mb43e5485d3" y="233.035024"/>
      </g>
     </g>
     <g id="text_67">
      <!-- LPEC -->
      <g transform="translate(148.096875 236.834243)scale(0.1 -0.1)">
       <use xlink:href="#DejaVuSans-76"/>
       <use x="55.712891" xlink:href="#DejaVuSans-80"/>
       <use x="116.015625" xlink:href="#DejaVuSans-69"/>
       <use x="179.199219" xlink:href="#DejaVuSans-67"/>
      </g>
     </g>
    </g>
    <g id="ytick_61">
     <g id="line2d_67">
      <g>
       <use style="stroke:#000000;stroke-width:0.8;" x="180" xlink:href="#mb43e5485d3" y="225.454537"/>
      </g>
     </g>
     <g id="text_68">
      <!-- LHYA -->
      <g transform="translate(147.734375 229.253755)scale(0.1 -0.1)">
       <use xlink:href="#DejaVuSans-76"/>
       <use x="55.712891" xlink:href="#DejaVuSans-72"/>
       <use x="130.908203" xlink:href="#DejaVuSans-89"/>
       <use x="184.242188" xlink:href="#DejaVuSans-65"/>
      </g>
     </g>
    </g>
    <g id="ytick_62">
     <g id="line2d_68">
      <g>
       <use style="stroke:#000000;stroke-width:0.8;" x="180" xlink:href="#mb43e5485d3" y="217.874049"/>
      </g>
     </g>
     <g id="text_69">
      <!-- SCLE -->
      <g transform="translate(147.778125 221.673268)scale(0.1 -0.1)">
       <use xlink:href="#DejaVuSans-83"/>
       <use x="63.476562" xlink:href="#DejaVuSans-67"/>
       <use x="133.300781" xlink:href="#DejaVuSans-76"/>
       <use x="189.013672" xlink:href="#DejaVuSans-69"/>
      </g>
     </g>
    </g>
    <g id="ytick_63">
     <g id="line2d_69">
      <g>
       <use style="stroke:#000000;stroke-width:0.8;" x="180" xlink:href="#mb43e5485d3" y="210.293561"/>
      </g>
     </g>
     <g id="text_70">
      <!-- NPER -->
      <g transform="translate(146.221875 214.09278)scale(0.1 -0.1)">
       <use xlink:href="#DejaVuSans-78"/>
       <use x="74.804688" xlink:href="#DejaVuSans-80"/>
       <use x="135.107422" xlink:href="#DejaVuSans-69"/>
       <use x="198.291016" xlink:href="#DejaVuSans-82"/>
      </g>
     </g>
    </g>
    <g id="ytick_64">
     <g id="line2d_70">
      <g>
       <use style="stroke:#000000;stroke-width:0.8;" x="180" xlink:href="#mb43e5485d3" y="202.713073"/>
      </g>
     </g>
     <g id="text_71">
      <!-- ACAL -->
      <g transform="translate(146.939063 206.512292)scale(0.1 -0.1)">
       <use xlink:href="#DejaVuSans-65"/>
       <use x="66.658203" xlink:href="#DejaVuSans-67"/>
       <use x="136.482422" xlink:href="#DejaVuSans-65"/>
       <use x="204.890625" xlink:href="#DejaVuSans-76"/>
      </g>
     </g>
    </g>
    <g id="ytick_65">
     <g id="line2d_71">
      <g>
       <use style="stroke:#000000;stroke-width:0.8;" x="180" xlink:href="#mb43e5485d3" y="195.132585"/>
      </g>
     </g>
     <g id="text_72">
      <!-- CLIN -->
      <g transform="translate(150.014062 198.931804)scale(0.1 -0.1)">
       <use xlink:href="#DejaVuSans-67"/>
       <use x="69.824219" xlink:href="#DejaVuSans-76"/>
       <use x="125.537109" xlink:href="#DejaVuSans-73"/>
       <use x="155.029297" xlink:href="#DejaVuSans-78"/>
      </g>
     </g>
    </g>
    <g id="ytick_66">
     <g id="line2d_72">
      <g>
       <use style="stroke:#000000;stroke-width:0.8;" x="180" xlink:href="#mb43e5485d3" y="187.552098"/>
      </g>
     </g>
     <g id="text_73">
      <!-- SMED -->
      <g transform="translate(144.004687 191.351316)scale(0.1 -0.1)">
       <use xlink:href="#DejaVuSans-83"/>
       <use x="63.476562" xlink:href="#DejaVuSans-77"/>
       <use x="149.755859" xlink:href="#DejaVuSans-69"/>
       <use x="212.939453" xlink:href="#DejaVuSans-68"/>
      </g>
     </g>
    </g>
    <g id="ytick_67">
     <g id="line2d_73">
      <g>
       <use style="stroke:#000000;stroke-width:0.8;" x="180" xlink:href="#mb43e5485d3" y="179.97161"/>
      </g>
     </g>
     <g id="text_74">
      <!-- SVEL -->
      <g transform="translate(147.920312 183.770829)scale(0.1 -0.1)">
       <use xlink:href="#DejaVuSans-83"/>
       <use x="63.476562" xlink:href="#DejaVuSans-86"/>
       <use x="131.884766" xlink:href="#DejaVuSans-69"/>
       <use x="195.068359" xlink:href="#DejaVuSans-76"/>
      </g>
     </g>
    </g>
    <g id="ytick_68">
     <g id="line2d_74">
      <g>
       <use style="stroke:#000000;stroke-width:0.8;" x="180" xlink:href="#mb43e5485d3" y="172.391122"/>
      </g>
     </g>
     <g id="text_75">
      <!-- TPIS -->
      <g transform="translate(151.564063 176.190341)scale(0.1 -0.1)">
       <use xlink:href="#DejaVuSans-84"/>
       <use x="61.083984" xlink:href="#DejaVuSans-80"/>
       <use x="121.386719" xlink:href="#DejaVuSans-73"/>
       <use x="150.878906" xlink:href="#DejaVuSans-83"/>
      </g>
     </g>
    </g>
    <g id="ytick_69">
     <g id="line2d_75">
      <g>
       <use style="stroke:#000000;stroke-width:0.8;" x="180" xlink:href="#mb43e5485d3" y="164.810634"/>
      </g>
     </g>
     <g id="text_76">
      <!-- GDIB -->
      <g transform="translate(147.740625 168.609853)scale(0.1 -0.1)">
       <use xlink:href="#DejaVuSans-71"/>
       <use x="77.490234" xlink:href="#DejaVuSans-68"/>
       <use x="154.492188" xlink:href="#DejaVuSans-73"/>
       <use x="183.984375" xlink:href="#DejaVuSans-66"/>
      </g>
     </g>
    </g>
    <g id="ytick_70">
     <g id="line2d_76">
      <g>
       <use style="stroke:#000000;stroke-width:0.8;" x="180" xlink:href="#mb43e5485d3" y="157.230146"/>
      </g>
     </g>
     <g id="text_77">
      <!-- ETET -->
      <g transform="translate(148.146875 161.029365)scale(0.1 -0.1)">
       <use xlink:href="#DejaVuSans-69"/>
       <use x="63.183594" xlink:href="#DejaVuSans-84"/>
       <use x="124.267578" xlink:href="#DejaVuSans-69"/>
       <use x="187.451172" xlink:href="#DejaVuSans-84"/>
      </g>
     </g>
    </g>
    <g id="ytick_71">
     <g id="line2d_77">
      <g>
       <use style="stroke:#000000;stroke-width:0.8;" x="180" xlink:href="#mb43e5485d3" y="149.649659"/>
      </g>
     </g>
     <g id="text_78">
      <!-- SMAN -->
      <g transform="translate(143.701562 153.448877)scale(0.1 -0.1)">
       <use xlink:href="#DejaVuSans-83"/>
       <use x="63.476562" xlink:href="#DejaVuSans-77"/>
       <use x="149.755859" xlink:href="#DejaVuSans-65"/>
       <use x="218.164062" xlink:href="#DejaVuSans-78"/>
      </g>
     </g>
    </g>
    <g id="ytick_72">
     <g id="line2d_78">
      <g>
       <use style="stroke:#000000;stroke-width:0.8;" x="180" xlink:href="#mb43e5485d3" y="142.069171"/>
      </g>
     </g>
     <g id="text_79">
      <!-- SAGI -->
      <g transform="translate(149.1 145.868389)scale(0.1 -0.1)">
       <use xlink:href="#DejaVuSans-83"/>
       <use x="65.351562" xlink:href="#DejaVuSans-65"/>
       <use x="132.009766" xlink:href="#DejaVuSans-71"/>
       <use x="209.5" xlink:href="#DejaVuSans-73"/>
      </g>
     </g>
    </g>
    <g id="ytick_73">
     <g id="line2d_79">
      <g>
       <use style="stroke:#000000;stroke-width:0.8;" x="180" xlink:href="#mb43e5485d3" y="134.488683"/>
      </g>
     </g>
     <g id="text_80">
      <!-- NLAP -->
      <g transform="translate(146.851562 138.287902)scale(0.1 -0.1)">
       <use xlink:href="#DejaVuSans-78"/>
       <use x="74.804688" xlink:href="#DejaVuSans-76"/>
       <use x="132.767578" xlink:href="#DejaVuSans-65"/>
       <use x="201.175781" xlink:href="#DejaVuSans-80"/>
      </g>
     </g>
    </g>
    <g id="ytick_74">
     <g id="line2d_80">
      <g>
       <use style="stroke:#000000;stroke-width:0.8;" x="180" xlink:href="#mb43e5485d3" y="126.908195"/>
      </g>
     </g>
     <g id="text_81">
      <!-- BNER -->
      <g transform="translate(145.390625 130.707414)scale(0.1 -0.1)">
       <use xlink:href="#DejaVuSans-66"/>
       <use x="68.603516" xlink:href="#DejaVuSans-78"/>
       <use x="143.408203" xlink:href="#DejaVuSans-69"/>
       <use x="206.591797" xlink:href="#DejaVuSans-82"/>
      </g>
     </g>
    </g>
    <g id="text_82">
     <!-- OTU -->
     <g transform="translate(135.723437 414.245219)rotate(-90)scale(0.1 -0.1)">
      <use xlink:href="#DejaVuSans-79"/>
      <use x="78.710938" xlink:href="#DejaVuSans-84"/>
      <use x="139.794922" xlink:href="#DejaVuSans-85"/>
     </g>
    </g>
   </g>
   <g id="patch_77">
    <path d="M 180 711.288 
L 180 95.904 
" style="fill:none;stroke:#000000;stroke-linecap:square;stroke-linejoin:miter;stroke-width:0.8;"/>
   </g>
   <g id="patch_78">
    <path d="M 1296 711.288 
L 1296 95.904 
" style="fill:none;stroke:#000000;stroke-linecap:square;stroke-linejoin:miter;stroke-width:0.8;"/>
   </g>
   <g id="patch_79">
    <path d="M 180 711.288 
L 1296 711.288 
" style="fill:none;stroke:#000000;stroke-linecap:square;stroke-linejoin:miter;stroke-width:0.8;"/>
   </g>
   <g id="patch_80">
    <path d="M 180 95.904 
L 1296 95.904 
" style="fill:none;stroke:#000000;stroke-linecap:square;stroke-linejoin:miter;stroke-width:0.8;"/>
   </g>
   <g id="text_83">
    <!-- Paralogy Frequency -->
    <g transform="translate(679.230937 89.904)scale(0.12 -0.12)">
     <defs>
      <path d="M 32.171875 -5.078125 
Q 28.375 -14.84375 24.75 -17.8125 
Q 21.140625 -20.796875 15.09375 -20.796875 
L 7.90625 -20.796875 
L 7.90625 -13.28125 
L 13.1875 -13.28125 
Q 16.890625 -13.28125 18.9375 -11.515625 
Q 21 -9.765625 23.484375 -3.21875 
L 25.09375 0.875 
L 2.984375 54.6875 
L 12.5 54.6875 
L 29.59375 11.921875 
L 46.6875 54.6875 
L 56.203125 54.6875 
z
" id="DejaVuSans-121"/>
      <path d="M 14.796875 27.296875 
Q 14.796875 17.390625 18.875 11.75 
Q 22.953125 6.109375 30.078125 6.109375 
Q 37.203125 6.109375 41.296875 11.75 
Q 45.40625 17.390625 45.40625 27.296875 
Q 45.40625 37.203125 41.296875 42.84375 
Q 37.203125 48.484375 30.078125 48.484375 
Q 22.953125 48.484375 18.875 42.84375 
Q 14.796875 37.203125 14.796875 27.296875 
z
M 45.40625 8.203125 
Q 42.578125 3.328125 38.25 0.953125 
Q 33.9375 -1.421875 27.875 -1.421875 
Q 17.96875 -1.421875 11.734375 6.484375 
Q 5.515625 14.40625 5.515625 27.296875 
Q 5.515625 40.1875 11.734375 48.09375 
Q 17.96875 56 27.875 56 
Q 33.9375 56 38.25 53.625 
Q 42.578125 51.265625 45.40625 46.390625 
L 45.40625 54.6875 
L 54.390625 54.6875 
L 54.390625 -20.796875 
L 45.40625 -20.796875 
z
" id="DejaVuSans-113"/>
      <path d="M 48.78125 52.59375 
L 48.78125 44.1875 
Q 44.96875 46.296875 41.140625 47.34375 
Q 37.3125 48.390625 33.40625 48.390625 
Q 24.65625 48.390625 19.8125 42.84375 
Q 14.984375 37.3125 14.984375 27.296875 
Q 14.984375 17.28125 19.8125 11.734375 
Q 24.65625 6.203125 33.40625 6.203125 
Q 37.3125 6.203125 41.140625 7.25 
Q 44.96875 8.296875 48.78125 10.40625 
L 48.78125 2.09375 
Q 45.015625 0.34375 40.984375 -0.53125 
Q 36.96875 -1.421875 32.421875 -1.421875 
Q 20.0625 -1.421875 12.78125 6.34375 
Q 5.515625 14.109375 5.515625 27.296875 
Q 5.515625 40.671875 12.859375 48.328125 
Q 20.21875 56 33.015625 56 
Q 37.15625 56 41.109375 55.140625 
Q 45.0625 54.296875 48.78125 52.59375 
z
" id="DejaVuSans-99"/>
     </defs>
     <use xlink:href="#DejaVuSans-80"/>
     <use x="55.802734" xlink:href="#DejaVuSans-97"/>
     <use x="117.082031" xlink:href="#DejaVuSans-114"/>
     <use x="158.195312" xlink:href="#DejaVuSans-97"/>
     <use x="219.474609" xlink:href="#DejaVuSans-108"/>
     <use x="247.257812" xlink:href="#DejaVuSans-111"/>
     <use x="308.439453" xlink:href="#DejaVuSans-103"/>
     <use x="371.916016" xlink:href="#DejaVuSans-121"/>
     <use x="431.095703" xlink:href="#DejaVuSans-32"/>
     <use x="462.882812" xlink:href="#DejaVuSans-70"/>
     <use x="513.152344" xlink:href="#DejaVuSans-114"/>
     <use x="552.015625" xlink:href="#DejaVuSans-101"/>
     <use x="613.539062" xlink:href="#DejaVuSans-113"/>
     <use x="677.015625" xlink:href="#DejaVuSans-117"/>
     <use x="740.394531" xlink:href="#DejaVuSans-101"/>
     <use x="801.917969" xlink:href="#DejaVuSans-110"/>
     <use x="865.296875" xlink:href="#DejaVuSans-99"/>
     <use x="920.277344" xlink:href="#DejaVuSans-121"/>
    </g>
   </g>
  </g>
 </g>
 <defs>
  <clipPath id="pb021dab346">
   <rect height="615.384" width="1116" x="180" y="95.904"/>
  </clipPath>
 </defs>
</svg>
